<svg width="21" height="20" viewBox="0 0 21 20" fill="none" xmlns="http://www.w3.org/2000/svg">
<path fill-rule="evenodd" clip-rule="evenodd" d="M14.9345 0.750198H6.26551C3.24451 0.750198 1.35051 2.8892 1.35051 5.9162V14.0842C1.35051 17.1112 3.23451 19.2502 6.26551 19.2502H14.9335C17.9645 19.2502 19.8505 17.1112 19.8505 14.0842V5.9162C19.8505 2.8892 17.9645 0.750198 14.9345 0.750198Z" stroke="#B7B7B7" stroke-width="1.5" stroke-linecap="round" stroke-linejoin="round"/>
<path d="M6.12059 9.19738C5.45959 9.19738 4.92259 8.66038 4.92259 8.00038C4.92259 7.34038 5.45959 6.80238 6.12059 6.80238C6.78159 6.80238 7.31859 7.34038 7.31859 8.00038C7.31859 8.66038 6.78159 9.19738 6.12059 9.19738" fill="#B7B7B7"/>
<path opacity="0.4" d="M10.6 15.1974C9.93902 15.1974 9.40202 14.6604 9.40202 14.0004C9.40202 13.3404 9.93902 12.8024 10.6 12.8024C11.261 12.8024 11.798 13.3404 11.798 14.0004C11.798 14.6604 11.261 15.1974 10.6 15.1974" fill="#B7B7B7"/>
<path d="M15.079 9.19738C14.418 9.19738 13.881 8.66038 13.881 8.00038C13.881 7.34038 14.418 6.80238 15.079 6.80238C15.74 6.80238 16.277 7.34038 16.277 8.00038C16.277 8.66038 15.74 9.19738 15.079 9.19738" fill="#B7B7B7"/>
</svg>
