<svg width="25" height="24" viewBox="0 0 25 24" fill="none" xmlns="http://www.w3.org/2000/svg">
<path fill-rule="evenodd" clip-rule="evenodd" d="M16.9512 2.71879H8.38144C5.395 2.71879 3.52267 4.83331 3.52267 7.82568V15.9002C3.52267 18.8926 5.38512 21.0071 8.38144 21.0071H16.9503C19.9466 21.0071 21.811 18.8926 21.811 15.9002V7.82568C21.811 4.83331 19.9466 2.71879 16.9512 2.71879Z" stroke="#200E32" stroke-width="1.48284" stroke-linecap="round" stroke-linejoin="round"/>
<path d="M8.23809 11.0693C7.58466 11.0693 7.0538 10.5385 7.0538 9.88602C7.0538 9.23357 7.58466 8.70173 8.23809 8.70173C8.89153 8.70173 9.42239 9.23357 9.42239 9.88602C9.42239 10.5385 8.89153 11.0693 8.23809 11.0693" fill="#C05757"/>
<path opacity="0.9" d="M12.6663 17.0007C12.0129 17.0007 11.482 16.4698 11.482 15.8174C11.482 15.1649 12.0129 14.6331 12.6663 14.6331C13.3198 14.6331 13.8506 15.1649 13.8506 15.8174C13.8506 16.4698 13.3198 17.0007 12.6663 17.0007" fill="black"/>
<path d="M17.0941 11.0693C16.4406 11.0693 15.9098 10.5385 15.9098 9.88602C15.9098 9.23357 16.4406 8.70173 17.0941 8.70173C17.7475 8.70173 18.2784 9.23357 18.2784 9.88602C18.2784 10.5385 17.7475 11.0693 17.0941 11.0693" fill="#FFC924"/>
</svg>
