<svg width="24" height="24" viewBox="0 0 24 24" fill="none" xmlns="http://www.w3.org/2000/svg">
<g clip-path="url(#clip0_324_11580)">
<path d="M10.0776 1.87503C5.34034 1.87503 1.5 5.75669 1.5 10.545C1.5 15.3332 5.34034 19.2149 10.0776 19.2149C14.8149 19.2149 18.6553 15.3332 18.6553 10.545C18.6553 8.24555 17.7516 6.04032 16.1429 4.41439C14.5343 2.78847 12.3526 1.87503 10.0776 1.87503Z" stroke="#B7B7B7" stroke-width="1.8"/>
<path d="M22.4606 21.1251L19.9059 19.0629C19.5194 18.679 18.8998 18.679 18.5133 19.0629C18.3128 19.2648 18.2002 19.539 18.2002 19.825C18.2002 20.111 18.3128 20.3852 18.5133 20.5871L20.6333 23.0168C21.1501 23.5392 21.9881 23.5392 22.5049 23.0168C23.0218 22.4944 23.0218 21.6475 22.5049 21.1251H22.4606Z" fill="#4A4A4A"/>
</g>
<defs>
<clipPath id="clip0_324_11580">
<rect width="23" height="23" fill="white" transform="translate(0.5 0.875031)"/>
</clipPath>
</defs>
</svg>
