<svg width="25" height="26" viewBox="0 0 25 26" fill="none" xmlns="http://www.w3.org/2000/svg">
<path fill-rule="evenodd" clip-rule="evenodd" d="M2.55347 11.1004C2.55347 6.04399 6.61127 1.92919 11.6362 1.92919C14.0481 1.92919 16.3593 2.89771 18.0619 4.61864C19.7642 6.33926 20.7189 8.67098 20.7189 11.1004C20.7189 16.1567 16.6611 20.2715 11.6362 20.2715C6.61127 20.2715 2.55347 16.1567 2.55347 11.1004ZM11.6362 3.65419C7.58132 3.65419 4.27847 6.97923 4.27847 11.1004C4.27847 15.2215 7.58132 18.5465 11.6362 18.5465C15.6911 18.5465 18.9939 15.2215 18.9939 11.1004C18.9939 9.12256 18.2165 7.22759 16.8357 5.83186C15.4551 4.43643 13.5846 3.65419 11.6362 3.65419Z" fill="#ECC046"/>
<path fill-rule="evenodd" clip-rule="evenodd" d="M1.55347 11.1004C1.55347 6.04399 5.61127 1.92919 10.6362 1.92919C13.0481 1.92919 15.3593 2.89771 17.0619 4.61864C18.7642 6.33926 19.7189 8.67098 19.7189 11.1004C19.7189 16.1567 15.6611 20.2715 10.6362 20.2715C5.61127 20.2715 1.55347 16.1567 1.55347 11.1004ZM10.6362 3.65419C6.58132 3.65419 3.27847 6.97923 3.27847 11.1004C3.27847 15.2215 6.58132 18.5465 10.6362 18.5465C14.6911 18.5465 17.9939 15.2215 17.9939 11.1004C17.9939 9.12256 17.2165 7.22759 15.8357 5.83186C14.4551 4.43643 12.5846 3.65419 10.6362 3.65419Z" fill="#C05757"/>
<path fill-rule="evenodd" clip-rule="evenodd" d="M10.5777 2.47503C5.33433 2.47503 1.1001 6.76873 1.1001 12.045C1.1001 17.3212 5.33433 21.6149 10.5777 21.6149C15.8211 21.6149 20.0554 17.3212 20.0554 12.045C20.0554 9.50994 19.0592 7.07684 17.2828 5.28141C15.5062 3.48565 13.0945 2.47503 10.5777 2.47503ZM2.9001 12.045C2.9001 7.74463 6.34655 4.27503 10.5777 4.27503C12.6108 4.27503 14.5627 5.09127 16.0033 6.54737C17.4442 8.00379 18.2554 9.98115 18.2554 12.045C18.2554 16.3453 14.8089 19.8149 10.5777 19.8149C6.34655 19.8149 2.9001 16.3453 2.9001 12.045ZM19.0135 19.0293L21.5681 21.0914H21.6125C22.1293 21.6138 22.1293 22.4608 21.6125 22.9832C21.0956 23.5056 20.2577 23.5056 19.7408 22.9832L17.6208 20.5535C17.4204 20.3516 17.3077 20.0774 17.3077 19.7914C17.3077 19.5054 17.4204 19.2312 17.6208 19.0293C18.0073 18.6454 18.6269 18.6454 19.0135 19.0293Z" fill="#200E32"/>
</svg>
