<svg width="28" height="24" viewBox="0 0 28 24" fill="none" xmlns="http://www.w3.org/2000/svg">
<path d="M13.2268 20.6294V17.6067C13.2268 16.8351 13.8569 16.2095 14.6342 16.2095H17.4755C17.8487 16.2095 18.2067 16.3567 18.4706 16.6188C18.7346 16.8808 18.8828 17.2361 18.8828 17.6067V20.6294C18.8805 20.9502 19.0072 21.2587 19.2349 21.4863C19.4625 21.714 19.7723 21.842 20.0955 21.842H22.0339C22.9393 21.8444 23.8083 21.489 24.4493 20.8543C25.0903 20.2196 25.4506 19.3578 25.4505 18.459V9.84773C25.4505 9.12173 25.1264 8.43309 24.5654 7.9673L17.9711 2.73902C16.8241 1.82232 15.1805 1.85192 14.0677 2.80932L7.6239 7.9673C7.03643 8.41935 6.6853 9.11004 6.66795 9.84773V18.4502C6.66795 20.3235 8.19763 21.842 10.0846 21.842H11.9788C12.6499 21.842 13.1954 21.3045 13.2003 20.6382L13.2268 20.6294Z" fill="#FFC924"/>
<path d="M9.66814 20.6294V17.6067C9.66814 16.835 10.2982 16.2095 11.0755 16.2095H13.9168C14.2901 16.2095 14.648 16.3567 14.912 16.6187C15.1759 16.8808 15.3242 17.2361 15.3242 17.6067V20.6294C15.3218 20.9502 15.4485 21.2587 15.6762 21.4863C15.9039 21.714 16.2137 21.842 16.5368 21.842H18.4753C19.3806 21.8443 20.2496 21.489 20.8906 20.8543C21.5316 20.2196 21.8919 19.3578 21.8919 18.459V9.84772C21.8919 9.12172 21.5677 8.43307 21.0067 7.96729L14.4125 2.73901C13.2654 1.82231 11.6219 1.85191 10.509 2.80931L4.06523 7.96729C3.47776 8.41934 3.12663 9.11003 3.10928 9.84772V18.4502C3.10928 20.3235 4.63896 21.842 6.52591 21.842H8.4201C9.09127 21.842 9.63673 21.3045 9.64159 20.6382L9.66814 20.6294Z" fill="#C05757"/>
<path d="M11.4476 20.6294V17.6067C11.4476 16.8351 12.0777 16.2095 12.855 16.2095H15.6962C16.0695 16.2095 16.4275 16.3567 16.6914 16.6188C16.9553 16.8808 17.1036 17.2361 17.1036 17.6067V20.6294C17.1013 20.9502 17.228 21.2587 17.4556 21.4863C17.6833 21.714 17.9931 21.842 18.3163 21.842H20.2547C21.16 21.8444 22.0291 21.489 22.6701 20.8543C23.3111 20.2196 23.6713 19.3578 23.6713 18.459V9.84773C23.6713 9.12173 23.3471 8.43309 22.7862 7.9673L16.1919 2.73902C15.0448 1.82232 13.4013 1.85192 12.2885 2.80932L5.84468 7.9673C5.25721 8.41935 4.90608 9.11004 4.88873 9.84773V18.4502C4.88873 20.3235 6.41841 21.842 8.30536 21.842H10.1996C10.8707 21.842 11.4162 21.3045 11.421 20.6382L11.4476 20.6294Z" fill="#F9F4F4"/>
</svg>
