<svg width="25" height="25" viewBox="0 0 25 25" fill="none" xmlns="http://www.w3.org/2000/svg">
<path opacity="0.4" fill-rule="evenodd" clip-rule="evenodd" d="M7.74339 20.2891C8.16539 20.2891 8.50839 20.6321 8.50839 21.0541C8.50839 21.4761 8.16539 21.8181 7.74339 21.8181C7.32139 21.8181 6.97939 21.4761 6.97939 21.0541C6.97939 20.6321 7.32139 20.2891 7.74339 20.2891Z" stroke="#B7B7B7" stroke-width="1.5" stroke-linecap="round" stroke-linejoin="round"/>
<path opacity="0.4" fill-rule="evenodd" clip-rule="evenodd" d="M18.9958 20.2891C19.4178 20.2891 19.7608 20.6321 19.7608 21.0541C19.7608 21.4761 19.4178 21.8181 18.9958 21.8181C18.5738 21.8181 18.2308 21.4761 18.2308 21.0541C18.2308 20.6321 18.5738 20.2891 18.9958 20.2891Z" stroke="#B7B7B7" stroke-width="1.5" stroke-linecap="round" stroke-linejoin="round"/>
<path d="M3.07099 3.71879L5.15099 4.07879L6.11399 15.5518C6.19199 16.4868 6.97299 17.2048 7.91099 17.2048H18.823C19.719 17.2048 20.479 16.5468 20.608 15.6588L21.557 9.10079C21.674 8.29179 21.047 7.56779 20.23 7.56779H5.48499" stroke="#B7B7B7" stroke-width="1.5" stroke-linecap="round" stroke-linejoin="round"/>
<path opacity="0.4" d="M14.4465 11.2638H17.2195" stroke="#B7B7B7" stroke-width="1.5" stroke-linecap="round" stroke-linejoin="round"/>
</svg>
