<svg width="28" height="25" viewBox="0 0 28 25" fill="none" xmlns="http://www.w3.org/2000/svg">
<path fill-rule="evenodd" clip-rule="evenodd" d="M17.4792 11.9832H20.247C20.6667 11.9832 20.9965 11.6362 20.9965 11.2178C20.9965 10.7892 20.6667 10.4524 20.247 10.4524H17.4792C17.0595 10.4524 16.7298 10.7892 16.7298 11.2178C16.7298 11.6362 17.0595 11.9832 17.4792 11.9832ZM23.5345 6.67755C24.144 6.67755 24.5437 6.89186 24.9434 7.36129C25.3431 7.83073 25.413 8.50426 25.3231 9.11555L24.3738 15.8101C24.194 17.097 23.1148 18.045 21.8458 18.045H10.9443C9.61533 18.045 8.51619 17.0051 8.40628 15.6581L7.48699 4.53346L5.97817 4.26813C5.57848 4.1967 5.2987 3.7987 5.36864 3.39049C5.43859 2.97311 5.82829 2.69655 6.23797 2.7588L8.62111 3.12516C8.96084 3.18741 9.21065 3.47213 9.24063 3.81911L9.43048 6.10505C9.46045 6.43263 9.72025 6.67755 10.04 6.67755H23.5345ZM9.85791 20.2501C9.01857 20.2501 9.26541 20.3519 9.26541 21.2091C9.26541 22.0562 9.01857 21.7501 9.85791 21.7501C10.6873 21.7501 9.85791 22.0972 9.85791 21.2501C9.85791 20.3929 10.6873 20.2501 9.85791 20.2501ZM20.8579 20.7501C20.0185 20.7501 20.5066 20.3519 20.5066 21.2091C20.5066 22.0562 20.0185 21.7501 20.8579 21.7501C21.6872 21.7501 20.9965 22.1061 20.9965 21.259C20.9965 20.4018 21.6872 20.7501 20.8579 20.7501Z" fill="#FFC924"/>
<path fill-rule="evenodd" clip-rule="evenodd" d="M14.4792 11.9832H17.247C17.6667 11.9832 17.9965 11.6362 17.9965 11.2178C17.9965 10.7892 17.6667 10.4524 17.247 10.4524H14.4792C14.0595 10.4524 13.7298 10.7892 13.7298 11.2178C13.7298 11.6362 14.0595 11.9832 14.4792 11.9832ZM20.5345 6.67755C21.144 6.67755 21.5437 6.89186 21.9434 7.36129C22.3431 7.83073 22.413 8.50426 22.3231 9.11555L21.3738 15.8101C21.194 17.097 20.1148 18.045 18.8458 18.045H7.94431C6.61533 18.045 5.51619 17.0051 5.40628 15.6581L4.48699 4.53346L2.97817 4.26813C2.57848 4.1967 2.2987 3.7987 2.36864 3.39049C2.43859 2.97311 2.82829 2.69655 3.23797 2.7588L5.62111 3.12516C5.96084 3.18741 6.21065 3.47213 6.24063 3.81911L6.43048 6.10505C6.46045 6.43263 6.72025 6.67755 7.04 6.67755H20.5345ZM9.35791 20.7501C8.51857 20.7501 8.35791 20.3929 8.35791 21.2501C8.35791 22.0972 8.51857 21.7501 9.35791 21.7501C10.1873 21.7501 9.29301 22.0562 9.29301 21.2091C9.29301 20.3519 10.1873 20.7501 9.35791 20.7501ZM20.3579 20.7501C19.5185 20.7501 20.8579 20.3929 20.8579 21.2501C20.8579 22.0972 19.0185 22.2501 19.8579 22.2501C20.6872 22.2501 20.5343 22.0562 20.5343 21.2091C20.5343 20.3519 21.1872 20.7501 20.3579 20.7501Z" fill="#C05757"/>
<path fill-rule="evenodd" clip-rule="evenodd" d="M15.9792 11.9832H18.747C19.1667 11.9832 19.4965 11.6362 19.4965 11.2178C19.4965 10.7892 19.1667 10.4524 18.747 10.4524H15.9792C15.5595 10.4524 15.2298 10.7892 15.2298 11.2178C15.2298 11.6362 15.5595 11.9832 15.9792 11.9832ZM22.0345 6.67755C22.644 6.67755 23.0437 6.89186 23.4434 7.36129C23.8431 7.83073 23.913 8.50426 23.8231 9.11555L22.8738 15.8101C22.694 17.097 21.6148 18.045 20.3458 18.045H9.4443C8.11533 18.045 7.01619 17.0051 6.90628 15.6581L5.98699 4.53346L4.47817 4.26813C4.07848 4.1967 3.7987 3.7987 3.86864 3.39049C3.93859 2.97311 4.32829 2.69655 4.73797 2.7588L7.12111 3.12516C7.46084 3.18741 7.71065 3.47213 7.74063 3.81911L7.93048 6.10505C7.96045 6.43263 8.22025 6.67755 8.54 6.67755H22.0345ZM9.28422 19.658C8.44488 19.658 7.76541 20.3519 7.76541 21.2091C7.76541 22.0562 8.44488 22.7501 9.28422 22.7501C10.1136 22.7501 10.7931 22.0562 10.7931 21.2091C10.7931 20.3519 10.1136 19.658 9.28422 19.658ZM20.5255 19.658C19.6861 19.658 19.0066 20.3519 19.0066 21.2091C19.0066 22.0562 19.6861 22.7501 20.5255 22.7501C21.3548 22.7501 22.0343 22.0562 22.0343 21.2091C22.0343 20.3519 21.3548 19.658 20.5255 19.658Z" fill="#200E32"/>
</svg>
