<svg width="27" height="24" viewBox="0 0 27 24" fill="none" xmlns="http://www.w3.org/2000/svg">
<path fill-rule="evenodd" clip-rule="evenodd" d="M17.294 7.29105C17.294 10.2281 14.9391 12.5831 12 12.5831C9.0619 12.5831 6.70601 10.2281 6.70601 7.29105C6.70601 4.35402 9.0619 2 12 2C14.9391 2 17.294 4.35402 17.294 7.29105ZM12 22C7.66237 22 4 21.295 4 18.575C4 15.8539 7.68538 15.1739 12 15.1739C16.3386 15.1739 20 15.8789 20 18.599C20 21.32 16.3146 22 12 22Z" fill="#FFC924"/>
<path fill-rule="evenodd" clip-rule="evenodd" d="M20.294 7.29105C20.294 10.2281 17.9391 12.5831 15 12.5831C12.0619 12.5831 9.70601 10.2281 9.70601 7.29105C9.70601 4.35402 12.0619 2 15 2C17.9391 2 20.294 4.35402 20.294 7.29105ZM15 22C10.6624 22 7 21.295 7 18.575C7 15.8539 10.6854 15.1739 15 15.1739C19.3386 15.1739 23 15.8789 23 18.599C23 21.32 19.3146 22 15 22Z" fill="#C05757"/>
<path fill-rule="evenodd" clip-rule="evenodd" d="M18.794 7.29105C18.794 10.2281 16.4391 12.5831 13.5 12.5831C10.5619 12.5831 8.20601 10.2281 8.20601 7.29105C8.20601 4.35402 10.5619 2 13.5 2C16.4391 2 18.794 4.35402 18.794 7.29105ZM13.5 22C9.16237 22 5.5 21.295 5.5 18.575C5.5 15.8539 9.18538 15.1739 13.5 15.1739C17.8386 15.1739 21.5 15.8789 21.5 18.599C21.5 21.32 17.8146 22 13.5 22Z" fill="black"/>
</svg>
