<svg width="24" height="25" viewBox="0 0 24 25" fill="none" xmlns="http://www.w3.org/2000/svg">
<circle opacity="0.4" cx="11.7264" cy="7.13799" r="4.72336" stroke="#B7B7B7" stroke-width="1.48284" stroke-linecap="round" stroke-linejoin="round"/>
<path fill-rule="evenodd" clip-rule="evenodd" d="M4.2342 18.4306C4.23293 18.0986 4.30719 17.7706 4.45137 17.4715C4.9038 16.5666 6.17965 16.087 7.23833 15.8699C8.00185 15.7069 8.77592 15.5981 9.55477 15.5441C10.9967 15.4175 12.4471 15.4175 13.889 15.5441C14.6678 15.5987 15.4418 15.7075 16.2055 15.8699C17.2642 16.087 18.54 16.5214 18.9924 17.4715C19.2824 18.0812 19.2824 18.7891 18.9924 19.3988C18.54 20.3489 17.2642 20.7832 16.2055 20.9914C15.4428 21.161 14.6685 21.273 13.889 21.3262C12.7154 21.4257 11.5362 21.4438 10.3601 21.3805C10.0886 21.3805 9.82622 21.3805 9.55477 21.3262C8.77822 21.2736 8.00683 21.1617 7.24738 20.9914C6.17965 20.7832 4.91284 20.3489 4.45137 19.3988C4.30793 19.0962 4.23374 18.7655 4.2342 18.4306Z" stroke="#B7B7B7" stroke-width="1.48284" stroke-linecap="round" stroke-linejoin="round"/>
</svg>
