<svg width="18" height="18" viewBox="0 0 18 18" fill="none" xmlns="http://www.w3.org/2000/svg">
<path d="M10.8989 7.1025L7.10391 10.8975C6.61641 10.41 6.31641 9.7425 6.31641 9C6.31641 7.515 7.51641 6.315 9.00141 6.315C9.74391 6.315 10.4114 6.615 10.8989 7.1025Z" stroke="#8F9BB3" stroke-linecap="round" stroke-linejoin="round"/>
<path d="M13.3639 4.32749C12.0514 3.33749 10.5514 2.79749 8.99891 2.79749C6.35141 2.79749 3.88391 4.35749 2.16641 7.05749C1.49141 8.11499 1.49141 9.89249 2.16641 10.95C2.75891 11.88 3.44891 12.6825 4.19891 13.3275" stroke="#8F9BB3" stroke-linecap="round" stroke-linejoin="round"/>
<path d="M6.31641 14.6475C7.17141 15.0075 8.07891 15.2025 9.00141 15.2025C11.6489 15.2025 14.1164 13.6425 15.8339 10.9425C16.5089 9.88501 16.5089 8.10751 15.8339 7.05001C15.5864 6.66001 15.3164 6.29251 15.0389 5.94751" stroke="#8F9BB3" stroke-linecap="round" stroke-linejoin="round"/>
<path d="M11.6306 9.52502C11.4356 10.5825 10.5731 11.445 9.51562 11.64" stroke="#8F9BB3" stroke-linecap="round" stroke-linejoin="round"/>
<path d="M7.1025 10.8975L1.5 16.5" stroke="#8F9BB3" stroke-linecap="round" stroke-linejoin="round"/>
<path d="M16.5009 1.5L10.8984 7.1025" stroke="#8F9BB3" stroke-linecap="round" stroke-linejoin="round"/>
</svg>
