<svg width="18" height="18" viewBox="0 0 18 18" fill="none" xmlns="http://www.w3.org/2000/svg">
<path d="M11.6864 9C11.6864 10.485 10.4864 11.685 9.00141 11.685C7.51641 11.685 6.31641 10.485 6.31641 9C6.31641 7.515 7.51641 6.315 9.00141 6.315C10.4864 6.315 11.6864 7.515 11.6864 9Z" stroke="#484C56" stroke-linecap="round" stroke-linejoin="round"/>
<path d="M8.99891 15.2025C11.6464 15.2025 14.1139 13.6425 15.8314 10.9425C16.5064 9.88498 16.5064 8.10748 15.8314 7.04998C14.1139 4.34998 11.6464 2.78998 8.99891 2.78998C6.35141 2.78998 3.88391 4.34998 2.16641 7.04998C1.49141 8.10748 1.49141 9.88498 2.16641 10.9425C3.88391 13.6425 6.35141 15.2025 8.99891 15.2025Z" stroke="#484C56" stroke-linecap="round" stroke-linejoin="round"/>
</svg>
