<svg width="17" height="15" viewBox="0 0 17 15" fill="none" xmlns="http://www.w3.org/2000/svg">
<path fill-rule="evenodd" clip-rule="evenodd" d="M1.00349 2.69324H2.06662C2.32783 3.60376 3.175 4.23285 4.13991 4.23285C5.10483 4.23285 5.95199 3.60376 6.21321 2.69324H16.3031C16.6281 2.69324 16.8916 2.43499 16.8916 2.11643C16.8916 1.79786 16.6281 1.53962 16.3031 1.53962H6.21713C5.95592 0.629095 5.10876 0 4.14384 0C3.17892 0 2.33176 0.629095 2.07054 1.53962H1.00349C0.678496 1.53962 0.415039 1.79786 0.415039 2.11643C0.415039 2.43499 0.678496 2.69324 1.00349 2.69324ZM4.14193 1.15508C4.68359 1.15508 5.12268 1.58549 5.12268 2.11643C5.12268 2.64737 4.68359 3.07778 4.14193 3.07778C3.60028 3.07778 3.16119 2.64737 3.16119 2.11643C3.16119 1.58549 3.60028 1.15508 4.14193 1.15508Z" fill="black"/>
<path fill-rule="evenodd" clip-rule="evenodd" d="M16.3031 6.92317H10.6619C10.3408 6.11 9.54284 5.57394 8.65331 5.57394C7.76378 5.57394 6.96577 6.11 6.64474 6.92317H1.00349C0.678496 6.92317 0.415039 7.18142 0.415039 7.49998C0.415039 7.81855 0.678496 8.07679 1.00349 8.07679H6.5349C6.72692 9.07636 7.61762 9.80037 8.65527 9.80037C9.69292 9.80037 10.5836 9.07636 10.7756 8.07679H16.3031C16.6281 8.07679 16.8916 7.81855 16.8916 7.49998C16.8916 7.18142 16.6281 6.92317 16.3031 6.92317ZM8.6536 8.65362C8.11195 8.65362 7.67286 8.22321 7.67286 7.69227C7.67286 7.16133 8.11195 6.73092 8.6536 6.73092C9.19525 6.73092 9.63435 7.16133 9.63435 7.69227C9.63435 8.22321 9.19525 8.65362 8.6536 8.65362Z" fill="black"/>
<path fill-rule="evenodd" clip-rule="evenodd" d="M16.3031 12.3068H15.24C14.9788 11.3962 14.1316 10.7672 13.1667 10.7672C12.2018 10.7672 11.3546 11.3962 11.0934 12.3068H1.00349C0.678496 12.3068 0.415039 12.565 0.415039 12.8836C0.415039 13.2021 0.678496 13.4604 1.00349 13.4604H11.0895C11.3507 14.3709 12.1979 15 13.1628 15C14.1277 15 14.9749 14.3709 15.2361 13.4604H16.3031C16.6281 13.4604 16.8916 13.2021 16.8916 12.8836C16.8916 12.565 16.6281 12.3068 16.3031 12.3068ZM13.1643 13.8449C12.6226 13.8449 12.1836 13.4145 12.1836 12.8836C12.1836 12.3526 12.6226 11.9222 13.1643 11.9222C13.7059 11.9222 14.145 12.3526 14.145 12.8836C14.145 13.4145 13.7059 13.8449 13.1643 13.8449Z" fill="black"/>
</svg>
