<svg width="776" height="307" viewBox="0 0 776 307" fill="none" xmlns="http://www.w3.org/2000/svg">
<mask id="path-1-outside-1_2623_20218" maskUnits="userSpaceOnUse" x="157" y="144.849" width="464" height="121" fill="black">
<rect fill="white" x="157" y="144.849" width="464" height="121"/>
<path d="M228.415 218.274V209.198H280.808V218.274C276.628 218.989 273.905 220.227 272.64 221.987C271.375 223.692 270.742 227.268 270.742 232.713V256.146C268.982 256.036 267.552 255.981 266.452 255.981C261.006 255.981 251.792 257.383 238.811 260.189C229.515 262.169 221.732 263.159 215.461 263.159C198.464 263.159 184.713 257.493 174.207 246.162C163.701 234.776 158.448 221.52 158.448 206.393C158.448 190.166 163.976 176.222 175.032 164.561C186.143 152.845 199.895 146.987 216.286 146.987C229.653 146.987 241.396 151.25 251.517 159.776C253.278 156.145 254.35 152.267 254.735 148.142H263.564L264.554 187.251H255.56C249.895 168.219 238.839 158.703 222.392 158.703C212.601 158.703 205.12 162.306 199.95 169.512C194.834 176.717 192.276 188.819 192.276 205.816C192.276 217.752 193.019 226.828 194.504 233.043C196.044 239.259 198.959 244.072 203.25 247.482C207.595 250.893 213.206 252.598 220.082 252.598C226.187 252.598 231.248 251.278 235.263 248.638C239.279 245.997 241.286 240.799 241.286 233.043V228.918C241.286 222.372 236.996 218.824 228.415 218.274ZM318.521 207.548C321.711 201.883 325.342 197.647 329.412 194.842C333.483 191.982 337.966 190.551 342.861 190.551C347.537 190.551 351.085 192.037 353.505 195.007C355.925 197.922 357.135 201.113 357.135 204.578C357.135 207.823 356.173 210.601 354.247 212.911C352.322 215.222 349.627 216.377 346.162 216.377C344.291 216.377 342.751 216.019 341.541 215.304C340.331 214.589 338.736 213.104 336.756 210.849C334.775 208.648 332.63 207.548 330.32 207.548C326.744 207.548 324.049 209.748 322.234 214.149C320.474 218.494 319.594 225.04 319.594 233.786V241.129C319.594 245.2 320.226 248.06 321.491 249.71C322.757 251.305 325.672 252.103 330.237 252.103H331.888V260.849H281.805V252.103C286.59 252.103 289.616 251.305 290.881 249.71C292.146 248.115 292.778 245.255 292.778 241.129V217.532C292.778 213.351 292.118 210.491 290.798 208.951C289.533 207.356 286.48 206.558 281.64 206.558V197.812L315.881 190.551C317.421 195.007 318.301 200.672 318.521 207.548ZM414.073 251.608C410.497 255.568 406.619 258.566 402.439 260.601C398.314 262.581 393.858 263.572 389.073 263.572C382.967 263.572 377.411 261.866 372.406 258.456C367.455 255.046 364.98 248.528 364.98 238.902V212.994C364.98 208.758 364.293 205.871 362.917 204.33C361.597 202.79 358.874 202.02 354.749 202.02V193.274H391.63V237.416C391.63 241.707 392.29 244.787 393.611 246.657C394.931 248.528 397.021 249.463 399.881 249.463C402.026 249.463 404.282 248.583 406.647 246.822C409.012 245.062 411.487 242.422 414.073 238.902V212.994C414.073 208.868 413.413 206.008 412.093 204.413C410.827 202.818 407.802 202.02 403.017 202.02V193.274H440.806V241.129C440.806 245.31 441.438 248.197 442.703 249.793C444.023 251.333 447.131 252.103 452.027 252.103V260.849C450.542 260.794 449.194 260.766 447.984 260.766C437.863 260.766 426.559 261.701 414.073 263.572V251.608ZM482.149 250.7L467.462 262.664H460.614V172.4C460.614 168.219 459.954 165.359 458.634 163.819C457.369 162.223 454.289 161.426 449.393 161.426V152.68L487.347 146.987V198.967C490.977 196.162 494.745 194.072 498.651 192.697C502.556 191.266 506.599 190.551 510.78 190.551C520.296 190.551 528.381 193.852 535.037 200.452C541.693 206.998 545.021 215.579 545.021 226.195C545.021 237.306 541.61 246.19 534.79 252.845C528.024 259.501 519.8 262.829 510.119 262.829C504.894 262.829 499.943 261.811 495.268 259.776C490.647 257.741 486.274 254.716 482.149 250.7ZM487.347 242.202C489.602 245.337 491.995 247.702 494.525 249.298C497.056 250.838 499.723 251.608 502.529 251.608C507.259 251.608 510.807 249.545 513.172 245.42C515.538 241.294 516.72 235.106 516.72 226.855C516.72 218.604 515.565 212.444 513.255 208.373C510.945 204.248 507.479 202.185 502.859 202.185C500.053 202.185 497.358 202.873 494.773 204.248C492.188 205.568 489.712 207.603 487.347 210.354V242.202ZM552.783 263.572L552.205 241.129H560.291C564.582 250.425 572.448 255.073 583.889 255.073C588.674 255.073 592.635 254.248 595.77 252.598C598.905 250.948 600.473 249.078 600.473 246.987C600.473 245.172 599.62 243.77 597.915 242.779C596.155 241.844 592.222 240.744 586.117 239.479C576.656 237.554 569.67 235.739 565.159 234.033C560.649 232.273 557.018 229.606 554.268 226.03C551.518 222.4 550.143 218.274 550.143 213.654C550.143 206.778 552.948 201.223 558.559 196.987C564.169 192.697 571.678 190.551 581.084 190.551C588.344 190.551 595.743 191.982 603.278 194.842C604.598 193.577 605.644 192.147 606.414 190.551H613.262L614.004 211.014H607.404C603.168 202.598 594.725 198.39 582.074 198.39C577.948 198.39 574.565 199.077 571.925 200.452C569.285 201.773 567.965 203.478 567.965 205.568C567.965 207.768 569.037 209.391 571.182 210.436C573.273 211.481 578.388 212.801 586.529 214.396C595 216.102 601.353 217.834 605.589 219.594C609.879 221.355 613.234 223.94 615.655 227.35C618.13 230.706 619.368 234.611 619.368 239.067C619.368 246.272 616.177 252.158 609.797 256.723C603.416 261.289 595.523 263.572 586.117 263.572C578.911 263.572 571.375 262.031 563.509 258.951C562.024 260.051 560.924 261.591 560.209 263.572H552.783Z"/>
</mask>
<path d="M228.415 218.274V209.198H280.808V218.274C276.628 218.989 273.905 220.227 272.64 221.987C271.375 223.692 270.742 227.268 270.742 232.713V256.146C268.982 256.036 267.552 255.981 266.452 255.981C261.006 255.981 251.792 257.383 238.811 260.189C229.515 262.169 221.732 263.159 215.461 263.159C198.464 263.159 184.713 257.493 174.207 246.162C163.701 234.776 158.448 221.52 158.448 206.393C158.448 190.166 163.976 176.222 175.032 164.561C186.143 152.845 199.895 146.987 216.286 146.987C229.653 146.987 241.396 151.25 251.517 159.776C253.278 156.145 254.35 152.267 254.735 148.142H263.564L264.554 187.251H255.56C249.895 168.219 238.839 158.703 222.392 158.703C212.601 158.703 205.12 162.306 199.95 169.512C194.834 176.717 192.276 188.819 192.276 205.816C192.276 217.752 193.019 226.828 194.504 233.043C196.044 239.259 198.959 244.072 203.25 247.482C207.595 250.893 213.206 252.598 220.082 252.598C226.187 252.598 231.248 251.278 235.263 248.638C239.279 245.997 241.286 240.799 241.286 233.043V228.918C241.286 222.372 236.996 218.824 228.415 218.274ZM318.521 207.548C321.711 201.883 325.342 197.647 329.412 194.842C333.483 191.982 337.966 190.551 342.861 190.551C347.537 190.551 351.085 192.037 353.505 195.007C355.925 197.922 357.135 201.113 357.135 204.578C357.135 207.823 356.173 210.601 354.247 212.911C352.322 215.222 349.627 216.377 346.162 216.377C344.291 216.377 342.751 216.019 341.541 215.304C340.331 214.589 338.736 213.104 336.756 210.849C334.775 208.648 332.63 207.548 330.32 207.548C326.744 207.548 324.049 209.748 322.234 214.149C320.474 218.494 319.594 225.04 319.594 233.786V241.129C319.594 245.2 320.226 248.06 321.491 249.71C322.757 251.305 325.672 252.103 330.237 252.103H331.888V260.849H281.805V252.103C286.59 252.103 289.616 251.305 290.881 249.71C292.146 248.115 292.778 245.255 292.778 241.129V217.532C292.778 213.351 292.118 210.491 290.798 208.951C289.533 207.356 286.48 206.558 281.64 206.558V197.812L315.881 190.551C317.421 195.007 318.301 200.672 318.521 207.548ZM414.073 251.608C410.497 255.568 406.619 258.566 402.439 260.601C398.314 262.581 393.858 263.572 389.073 263.572C382.967 263.572 377.411 261.866 372.406 258.456C367.455 255.046 364.98 248.528 364.98 238.902V212.994C364.98 208.758 364.293 205.871 362.917 204.33C361.597 202.79 358.874 202.02 354.749 202.02V193.274H391.63V237.416C391.63 241.707 392.29 244.787 393.611 246.657C394.931 248.528 397.021 249.463 399.881 249.463C402.026 249.463 404.282 248.583 406.647 246.822C409.012 245.062 411.487 242.422 414.073 238.902V212.994C414.073 208.868 413.413 206.008 412.093 204.413C410.827 202.818 407.802 202.02 403.017 202.02V193.274H440.806V241.129C440.806 245.31 441.438 248.197 442.703 249.793C444.023 251.333 447.131 252.103 452.027 252.103V260.849C450.542 260.794 449.194 260.766 447.984 260.766C437.863 260.766 426.559 261.701 414.073 263.572V251.608ZM482.149 250.7L467.462 262.664H460.614V172.4C460.614 168.219 459.954 165.359 458.634 163.819C457.369 162.223 454.289 161.426 449.393 161.426V152.68L487.347 146.987V198.967C490.977 196.162 494.745 194.072 498.651 192.697C502.556 191.266 506.599 190.551 510.78 190.551C520.296 190.551 528.381 193.852 535.037 200.452C541.693 206.998 545.021 215.579 545.021 226.195C545.021 237.306 541.61 246.19 534.79 252.845C528.024 259.501 519.8 262.829 510.119 262.829C504.894 262.829 499.943 261.811 495.268 259.776C490.647 257.741 486.274 254.716 482.149 250.7ZM487.347 242.202C489.602 245.337 491.995 247.702 494.525 249.298C497.056 250.838 499.723 251.608 502.529 251.608C507.259 251.608 510.807 249.545 513.172 245.42C515.538 241.294 516.72 235.106 516.72 226.855C516.72 218.604 515.565 212.444 513.255 208.373C510.945 204.248 507.479 202.185 502.859 202.185C500.053 202.185 497.358 202.873 494.773 204.248C492.188 205.568 489.712 207.603 487.347 210.354V242.202ZM552.783 263.572L552.205 241.129H560.291C564.582 250.425 572.448 255.073 583.889 255.073C588.674 255.073 592.635 254.248 595.77 252.598C598.905 250.948 600.473 249.078 600.473 246.987C600.473 245.172 599.62 243.77 597.915 242.779C596.155 241.844 592.222 240.744 586.117 239.479C576.656 237.554 569.67 235.739 565.159 234.033C560.649 232.273 557.018 229.606 554.268 226.03C551.518 222.4 550.143 218.274 550.143 213.654C550.143 206.778 552.948 201.223 558.559 196.987C564.169 192.697 571.678 190.551 581.084 190.551C588.344 190.551 595.743 191.982 603.278 194.842C604.598 193.577 605.644 192.147 606.414 190.551H613.262L614.004 211.014H607.404C603.168 202.598 594.725 198.39 582.074 198.39C577.948 198.39 574.565 199.077 571.925 200.452C569.285 201.773 567.965 203.478 567.965 205.568C567.965 207.768 569.037 209.391 571.182 210.436C573.273 211.481 578.388 212.801 586.529 214.396C595 216.102 601.353 217.834 605.589 219.594C609.879 221.355 613.234 223.94 615.655 227.35C618.13 230.706 619.368 234.611 619.368 239.067C619.368 246.272 616.177 252.158 609.797 256.723C603.416 261.289 595.523 263.572 586.117 263.572C578.911 263.572 571.375 262.031 563.509 258.951C562.024 260.051 560.924 261.591 560.209 263.572H552.783Z" fill="white"/>
<path d="M228.415 218.274H227.288V219.331L228.343 219.399L228.415 218.274ZM228.415 209.198V208.072H227.288V209.198H228.415ZM280.808 209.198H281.935V208.072H280.808V209.198ZM280.808 218.274L280.998 219.385L281.935 219.225V218.274H280.808ZM272.64 221.987L273.544 222.658L273.549 222.652L273.554 222.645L272.64 221.987ZM270.742 256.146L270.672 257.27L271.868 257.345V256.146H270.742ZM238.811 260.189L239.046 261.291L239.049 261.29L238.811 260.189ZM174.207 246.162L173.379 246.926L173.381 246.928L174.207 246.162ZM175.032 164.561L174.214 163.786L174.214 163.786L175.032 164.561ZM251.517 159.776L250.792 160.637L251.899 161.57L252.531 160.267L251.517 159.776ZM254.735 148.142V147.015H253.709L253.614 148.037L254.735 148.142ZM263.564 148.142L264.69 148.113L264.662 147.015H263.564V148.142ZM264.554 187.251V188.378H265.709L265.68 187.223L264.554 187.251ZM255.56 187.251L254.481 187.572L254.72 188.378H255.56V187.251ZM199.95 169.512L199.034 168.855L199.031 168.86L199.95 169.512ZM194.504 233.043L193.408 233.305L193.41 233.314L194.504 233.043ZM203.25 247.482L202.549 248.364L202.554 248.369L203.25 247.482ZM229.542 218.274V209.198H227.288V218.274H229.542ZM228.415 210.325H280.808V208.072H228.415V210.325ZM279.682 209.198V218.274H281.935V209.198H279.682ZM280.618 217.164C276.39 217.887 273.267 219.184 271.725 221.33L273.554 222.645C274.542 221.27 276.865 220.092 280.998 219.385L280.618 217.164ZM271.735 221.316C270.949 222.375 270.435 223.898 270.107 225.751C269.775 227.627 269.615 229.954 269.615 232.713H271.868C271.868 230.027 272.025 227.843 272.326 226.144C272.63 224.422 273.065 223.304 273.544 222.658L271.735 221.316ZM269.615 232.713V256.146H271.868V232.713H269.615ZM270.812 255.021C269.041 254.911 267.585 254.854 266.452 254.854V257.107C267.519 257.107 268.923 257.161 270.672 257.27L270.812 255.021ZM266.452 254.854C260.873 254.854 251.553 256.283 238.573 259.088L239.049 261.29C252.032 258.484 261.139 257.107 266.452 257.107V254.854ZM238.576 259.087C229.322 261.058 221.624 262.033 215.461 262.033V264.286C221.84 264.286 229.708 263.28 239.046 261.291L238.576 259.087ZM215.461 262.033C198.743 262.033 185.303 256.473 175.033 245.396L173.381 246.928C184.123 258.514 198.186 264.286 215.461 264.286V262.033ZM175.035 245.398C164.715 234.215 159.574 221.229 159.574 206.393H157.321C157.321 221.81 162.686 235.337 173.379 246.926L175.035 245.398ZM159.574 206.393C159.574 190.452 164.994 176.786 175.849 165.336L174.214 163.786C162.958 175.659 157.321 189.881 157.321 206.393H159.574ZM175.849 165.336C186.744 153.848 200.198 148.113 216.286 148.113V145.86C199.591 145.86 185.542 151.842 174.214 163.786L175.849 165.336ZM216.286 148.113C229.39 148.113 240.876 152.284 250.792 160.637L252.243 158.914C241.917 150.215 229.915 145.86 216.286 145.86V148.113ZM252.531 160.267C254.352 156.512 255.46 152.503 255.857 148.247L253.614 148.037C253.241 152.032 252.204 155.779 250.504 159.284L252.531 160.267ZM254.735 149.268H263.564V147.015H254.735V149.268ZM262.438 148.17L263.428 187.28L265.68 187.223L264.69 148.113L262.438 148.17ZM264.554 186.125H255.56V188.378H264.554V186.125ZM256.64 186.93C253.767 177.279 249.495 169.927 243.754 164.986C237.995 160.03 230.848 157.577 222.392 157.577V159.83C230.382 159.83 236.987 162.134 242.284 166.694C247.6 171.269 251.688 178.191 254.481 187.572L256.64 186.93ZM222.392 157.577C212.282 157.577 204.441 161.32 199.034 168.855L200.865 170.168C205.799 163.292 212.92 159.83 222.392 159.83V157.577ZM199.031 168.86C193.703 176.364 191.15 188.768 191.15 205.816H193.403C193.403 188.87 195.965 177.071 200.868 170.164L199.031 168.86ZM191.15 205.816C191.15 217.778 191.892 226.959 193.408 233.305L195.6 232.782C194.146 226.696 193.403 217.726 193.403 205.816H191.15ZM193.41 233.314C195 239.729 198.032 244.774 202.549 248.364L203.951 246.601C199.887 243.37 197.088 238.789 195.597 232.772L193.41 233.314ZM202.554 248.369C207.143 251.97 213.017 253.724 220.082 253.724V251.471C213.395 251.471 208.048 249.816 203.945 246.596L202.554 248.369ZM220.082 253.724C226.348 253.724 231.639 252.369 235.882 249.579L234.644 247.696C230.857 250.187 226.027 251.471 220.082 251.471V253.724ZM235.882 249.579C240.373 246.626 242.413 240.939 242.413 233.043H240.16C240.16 240.66 238.185 245.368 234.644 247.696L235.882 249.579ZM242.413 233.043V228.918H240.16V233.043H242.413ZM242.413 228.918C242.413 225.375 241.237 222.506 238.786 220.48C236.383 218.492 232.894 217.433 228.487 217.15L228.343 219.399C232.517 219.666 235.464 220.655 237.351 222.216C239.19 223.737 240.16 225.915 240.16 228.918H242.413ZM318.521 207.548L317.395 207.584L317.524 211.615L319.503 208.101L318.521 207.548ZM329.412 194.842L330.052 195.769L330.06 195.764L329.412 194.842ZM353.505 195.007L352.631 195.719L352.638 195.726L353.505 195.007ZM336.756 210.849L337.602 210.105L337.593 210.095L336.756 210.849ZM322.234 214.149L321.193 213.719L321.19 213.726L322.234 214.149ZM321.491 249.71L320.597 250.396L320.603 250.403L320.609 250.41L321.491 249.71ZM331.888 252.103H333.014V250.976H331.888V252.103ZM331.888 260.849V261.975H333.014V260.849H331.888ZM281.805 260.849H280.678V261.975H281.805V260.849ZM281.805 252.103V250.976H280.678V252.103H281.805ZM290.798 208.951L289.916 209.651L289.929 209.668L289.943 209.684L290.798 208.951ZM281.64 206.558H280.513V207.685H281.64V206.558ZM281.64 197.812L281.406 196.71L280.513 196.899V197.812H281.64ZM315.881 190.551L316.946 190.183L316.62 189.243L315.647 189.449L315.881 190.551ZM319.503 208.101C322.634 202.54 326.159 198.452 330.052 195.769L328.773 193.914C324.524 196.843 320.789 201.226 317.54 206.995L319.503 208.101ZM330.06 195.764C333.944 193.034 338.201 191.678 342.861 191.678V189.425C337.73 189.425 333.021 190.929 328.765 193.92L330.06 195.764ZM342.861 191.678C347.28 191.678 350.472 193.068 352.631 195.718L354.378 194.295C351.697 191.005 347.793 189.425 342.861 189.425V191.678ZM352.638 195.726C354.907 198.46 356.009 201.4 356.009 204.578H358.262C358.262 200.825 356.943 197.385 354.372 194.287L352.638 195.726ZM356.009 204.578C356.009 207.582 355.125 210.099 353.382 212.19L355.113 213.632C357.221 211.103 358.262 208.064 358.262 204.578H356.009ZM353.382 212.19C351.705 214.203 349.349 215.25 346.162 215.25V217.503C349.904 217.503 352.94 216.24 355.113 213.632L353.382 212.19ZM346.162 215.25C344.428 215.25 343.102 214.918 342.114 214.334L340.968 216.274C342.4 217.12 344.154 217.503 346.162 217.503V215.25ZM342.114 214.334C341.068 213.716 339.572 212.349 337.602 210.105L335.909 211.592C337.899 213.859 339.593 215.462 340.968 216.274L342.114 214.334ZM337.593 210.095C335.463 207.728 333.034 206.422 330.32 206.422V208.675C332.226 208.675 334.088 209.568 335.918 211.602L337.593 210.095ZM330.32 206.422C328.28 206.422 326.459 207.057 324.904 208.326C323.369 209.579 322.146 211.407 321.193 213.719L323.275 214.578C324.137 212.49 325.17 211.018 326.329 210.071C327.47 209.14 328.784 208.675 330.32 208.675V206.422ZM321.19 213.726C319.347 218.277 318.467 224.999 318.467 233.786H320.72C320.72 225.082 321.601 218.712 323.278 214.572L321.19 213.726ZM318.467 233.786V241.129H320.72V233.786H318.467ZM318.467 241.129C318.467 245.246 319.093 248.433 320.597 250.396L322.385 249.025C321.359 247.686 320.72 245.153 320.72 241.129H318.467ZM320.609 250.41C321.447 251.467 322.747 252.158 324.329 252.591C325.92 253.026 327.9 253.229 330.237 253.229V250.976C328.009 250.976 326.249 250.781 324.924 250.418C323.591 250.053 322.801 249.549 322.374 249.01L320.609 250.41ZM330.237 253.229H331.888V250.976H330.237V253.229ZM330.761 252.103V260.849H333.014V252.103H330.761ZM331.888 259.722H281.805V261.975H331.888V259.722ZM282.931 260.849V252.103H280.678V260.849H282.931ZM281.805 253.229C284.249 253.229 286.308 253.027 287.95 252.594C289.579 252.165 290.918 251.476 291.763 250.41L289.998 249.01C289.579 249.539 288.772 250.047 287.376 250.415C285.992 250.78 284.146 250.976 281.805 250.976V253.229ZM291.763 250.41C293.283 248.494 293.905 245.291 293.905 241.129H291.652C291.652 245.219 291.009 247.736 289.998 249.01L291.763 250.41ZM293.905 241.129V217.532H291.652V241.129H293.905ZM293.905 217.532C293.905 213.321 293.258 210.09 291.654 208.218L289.943 209.684C290.978 210.892 291.652 213.381 291.652 217.532H293.905ZM291.681 208.251C290.833 207.182 289.485 206.495 287.844 206.066C286.19 205.634 284.111 205.432 281.64 205.432V207.685C284.009 207.685 285.877 207.881 287.275 208.246C288.687 208.615 289.498 209.124 289.916 209.651L291.681 208.251ZM282.766 206.558V197.812H280.513V206.558H282.766ZM281.873 198.914L316.115 191.653L315.647 189.449L281.406 196.71L281.873 198.914ZM314.816 190.919C316.307 195.231 317.177 200.775 317.395 207.584L319.647 207.512C319.425 200.57 318.535 194.783 316.946 190.183L314.816 190.919ZM414.073 251.608H415.199V248.679L413.237 250.853L414.073 251.608ZM402.439 260.601L402.927 261.617L402.932 261.614L402.439 260.601ZM372.406 258.456L371.767 259.384L371.772 259.387L372.406 258.456ZM362.917 204.33L362.062 205.063L362.069 205.072L362.077 205.081L362.917 204.33ZM354.749 202.02H353.622V203.147H354.749V202.02ZM354.749 193.274V192.148H353.622V193.274H354.749ZM391.63 193.274H392.757V192.148H391.63V193.274ZM414.073 238.902L414.981 239.568L415.199 239.271V238.902H414.073ZM412.093 204.413L411.21 205.113L411.217 205.122L411.225 205.131L412.093 204.413ZM403.017 202.02H401.89V203.147H403.017V202.02ZM403.017 193.274V192.148H401.89V193.274H403.017ZM440.806 193.274H441.932V192.148H440.806V193.274ZM442.703 249.793L441.821 250.493L441.834 250.509L441.848 250.526L442.703 249.793ZM452.027 252.103H453.153V250.976H452.027V252.103ZM452.027 260.849L451.985 261.975L453.153 262.018V260.849H452.027ZM414.073 263.572H412.946V264.879L414.24 264.686L414.073 263.572ZM413.237 250.853C409.744 254.722 405.979 257.625 401.946 259.588L402.932 261.614C407.26 259.507 411.251 256.415 414.909 252.363L413.237 250.853ZM401.952 259.586C397.985 261.49 393.697 262.445 389.073 262.445V264.698C394.019 264.698 398.642 263.673 402.927 261.617L401.952 259.586ZM389.073 262.445C383.191 262.445 377.857 260.807 373.04 257.525L371.772 259.387C376.966 262.926 382.743 264.698 389.073 264.698V262.445ZM373.045 257.528C368.549 254.431 366.107 248.385 366.107 238.902H363.854C363.854 248.67 366.362 255.66 371.767 259.384L373.045 257.528ZM366.107 238.902V212.994H363.854V238.902H366.107ZM366.107 212.994C366.107 208.727 365.433 205.456 363.758 203.58L362.077 205.081C363.152 206.285 363.854 208.79 363.854 212.994H366.107ZM363.773 203.597C362.922 202.604 361.685 201.936 360.192 201.514C358.696 201.091 356.873 200.894 354.749 200.894V203.147C356.751 203.147 358.351 203.335 359.579 203.682C360.808 204.029 361.593 204.516 362.062 205.063L363.773 203.597ZM355.876 202.02V193.274H353.622V202.02H355.876ZM354.749 194.401H391.63V192.148H354.749V194.401ZM390.504 193.274V237.416H392.757V193.274H390.504ZM390.504 237.416C390.504 241.765 391.162 245.142 392.69 247.307L394.531 246.008C393.419 244.432 392.757 241.649 392.757 237.416H390.504ZM392.69 247.307C394.274 249.551 396.757 250.589 399.881 250.589V248.336C397.285 248.336 395.587 247.504 394.531 246.008L392.69 247.307ZM399.881 250.589C402.345 250.589 404.831 249.578 407.32 247.726L405.974 245.919C403.732 247.587 401.708 248.336 399.881 248.336V250.589ZM407.32 247.726C409.807 245.875 412.358 243.14 414.981 239.568L413.165 238.235C410.617 241.704 408.218 244.249 405.974 245.919L407.32 247.726ZM415.199 238.902V212.994H412.946V238.902H415.199ZM415.199 212.994C415.199 208.827 414.548 205.614 412.96 203.695L411.225 205.131C412.277 206.403 412.946 208.91 412.946 212.994H415.199ZM412.975 203.713C412.13 202.647 410.791 201.959 409.162 201.529C407.52 201.096 405.461 200.894 403.017 200.894V203.147C405.358 203.147 407.204 203.343 408.588 203.708C409.984 204.076 410.79 204.584 411.21 205.113L412.975 203.713ZM404.143 202.02V193.274H401.89V202.02H404.143ZM403.017 194.401H440.806V192.148H403.017V194.401ZM439.679 193.274V241.129H441.932V193.274H439.679ZM439.679 241.129C439.679 245.341 440.3 248.575 441.821 250.493L443.586 249.093C442.576 247.82 441.932 245.278 441.932 241.129H439.679ZM441.848 250.526C442.726 251.55 444.094 252.208 445.753 252.619C447.429 253.034 449.53 253.229 452.027 253.229V250.976C449.628 250.976 447.727 250.787 446.295 250.432C444.847 250.073 444.001 249.576 443.559 249.06L441.848 250.526ZM450.9 252.103V260.849H453.153V252.103H450.9ZM452.068 259.723C450.572 259.668 449.211 259.64 447.984 259.64V261.893C449.177 261.893 450.511 261.92 451.985 261.975L452.068 259.723ZM447.984 259.64C437.795 259.64 426.435 260.581 413.906 262.458L414.24 264.686C426.684 262.822 437.93 261.893 447.984 261.893V259.64ZM415.199 263.572V251.608H412.946V263.572H415.199ZM482.149 250.7L482.935 249.893L482.216 249.193L481.438 249.827L482.149 250.7ZM467.462 262.664V263.791H467.863L468.174 263.537L467.462 262.664ZM460.614 262.664H459.488V263.791H460.614V262.664ZM458.634 163.819L457.751 164.519L457.765 164.535L457.779 164.552L458.634 163.819ZM449.393 161.426H448.267V162.552H449.393V161.426ZM449.393 152.68L449.226 151.566L448.267 151.71V152.68H449.393ZM487.347 146.987H488.474V145.679L487.18 145.873L487.347 146.987ZM487.347 198.967H486.221V201.261L488.036 199.859L487.347 198.967ZM498.651 192.697L499.025 193.759L499.038 193.754L498.651 192.697ZM535.037 200.452L534.244 201.252L534.247 201.256L535.037 200.452ZM534.79 252.845L534.003 252.039L534 252.042L534.79 252.845ZM495.268 259.776L494.814 260.807L494.818 260.809L495.268 259.776ZM487.347 242.202H486.221V242.565L486.433 242.86L487.347 242.202ZM494.525 249.298L493.925 250.251L493.932 250.255L493.94 250.26L494.525 249.298ZM513.255 208.373L512.272 208.924L512.275 208.929L513.255 208.373ZM494.773 204.248L495.285 205.251L495.294 205.247L495.302 205.242L494.773 204.248ZM487.347 210.354L486.493 209.619L486.221 209.936V210.354H487.347ZM481.438 249.827L466.751 261.791L468.174 263.537L482.861 251.574L481.438 249.827ZM467.462 261.537H460.614V263.791H467.462V261.537ZM461.741 262.664V172.4H459.488V262.664H461.741ZM461.741 172.4C461.741 168.189 461.094 164.958 459.489 163.085L457.779 164.552C458.814 165.76 459.488 168.249 459.488 172.4H461.741ZM459.517 163.119C458.667 162.048 457.31 161.361 455.657 160.933C453.99 160.502 451.891 160.299 449.393 160.299V162.552C451.791 162.552 453.68 162.749 455.093 163.115C456.52 163.484 457.336 163.994 457.751 164.519L459.517 163.119ZM450.52 161.426V152.68H448.267V161.426H450.52ZM449.56 153.794L487.514 148.101L487.18 145.873L449.226 151.566L449.56 153.794ZM486.221 146.987V198.967H488.474V146.987H486.221ZM488.036 199.859C491.581 197.119 495.244 195.09 499.025 193.759L498.277 191.634C494.246 193.053 490.374 195.205 486.658 198.076L488.036 199.859ZM499.038 193.754C502.819 192.37 506.731 191.678 510.78 191.678V189.425C506.468 189.425 502.294 190.163 498.263 191.639L499.038 193.754ZM510.78 191.678C520.003 191.678 527.803 194.864 534.244 201.252L535.83 199.653C528.96 192.839 520.588 189.425 510.78 189.425V191.678ZM534.247 201.256C540.657 207.56 543.894 215.836 543.894 226.195H546.147C546.147 215.322 542.728 206.436 535.827 199.649L534.247 201.256ZM543.894 226.195C543.894 237.057 540.57 245.631 534.003 252.039L535.576 253.652C542.651 246.749 546.147 237.555 546.147 226.195H543.894ZM534 252.042C527.449 258.486 519.512 261.703 510.119 261.703V263.956C520.089 263.956 528.598 260.516 535.58 253.649L534 252.042ZM510.119 261.703C505.045 261.703 500.248 260.715 495.718 258.743L494.818 260.809C499.639 262.908 504.743 263.956 510.119 263.956V261.703ZM495.722 258.745C491.241 256.771 486.977 253.828 482.935 249.893L481.363 251.508C485.572 255.604 490.054 258.711 494.814 260.807L495.722 258.745ZM486.433 242.86C488.749 246.08 491.242 248.559 493.925 250.251L495.126 248.345C492.748 246.846 490.456 244.594 488.262 241.544L486.433 242.86ZM493.94 250.26C496.636 251.901 499.505 252.734 502.529 252.734V250.481C499.942 250.481 497.475 249.774 495.111 248.335L493.94 250.26ZM502.529 252.734C507.665 252.734 511.585 250.453 514.15 245.98L512.195 244.859C510.029 248.637 506.853 250.481 502.529 250.481V252.734ZM514.15 245.98C516.66 241.601 517.847 235.177 517.847 226.855H515.594C515.594 235.035 514.415 240.988 512.195 244.859L514.15 245.98ZM517.847 226.855C517.847 218.538 516.689 212.142 514.235 207.817L512.275 208.929C514.441 212.746 515.594 218.671 515.594 226.855H517.847ZM514.238 207.823C513.003 205.618 511.429 203.913 509.499 202.764C507.568 201.615 505.342 201.059 502.859 201.059V203.312C504.996 203.312 506.813 203.787 508.347 204.7C509.882 205.614 511.197 207.003 512.272 208.924L514.238 207.823ZM502.859 201.059C499.861 201.059 496.985 201.795 494.244 203.253L495.302 205.242C497.732 203.95 500.246 203.312 502.859 203.312V201.059ZM494.261 203.245C491.517 204.646 488.931 206.784 486.493 209.619L488.201 211.088C490.494 208.422 492.858 206.49 495.285 205.251L494.261 203.245ZM486.221 210.354V242.202H488.474V210.354H486.221ZM552.783 263.572L551.657 263.601L551.685 264.698H552.783V263.572ZM552.205 241.129V240.003H551.05L551.079 241.158L552.205 241.129ZM560.291 241.129L561.314 240.657L561.012 240.003H560.291V241.129ZM597.915 242.779L598.481 241.805L598.463 241.795L598.444 241.785L597.915 242.779ZM586.117 239.479L586.345 238.376L586.341 238.375L586.117 239.479ZM565.159 234.033L564.75 235.083L564.761 235.087L565.159 234.033ZM554.268 226.03L553.37 226.71L553.375 226.717L554.268 226.03ZM558.559 196.987L559.237 197.886L559.243 197.882L558.559 196.987ZM603.278 194.842L602.879 195.895L603.544 196.148L604.058 195.655L603.278 194.842ZM606.414 190.551V189.425H605.707L605.399 190.062L606.414 190.551ZM613.262 190.551L614.388 190.511L614.348 189.425H613.262V190.551ZM614.004 211.014V212.14H615.173L615.13 210.973L614.004 211.014ZM607.404 211.014L606.398 211.52L606.71 212.14H607.404V211.014ZM571.925 200.452L572.429 201.46L572.437 201.456L572.445 201.452L571.925 200.452ZM571.182 210.436L571.686 209.428L571.676 209.423L571.182 210.436ZM586.529 214.396L586.751 213.292L586.746 213.291L586.529 214.396ZM605.589 219.594L605.156 220.635L605.161 220.637L605.589 219.594ZM615.655 227.35L614.736 228.002L614.742 228.011L614.748 228.019L615.655 227.35ZM563.509 258.951L563.92 257.902L563.34 257.675L562.839 258.046L563.509 258.951ZM560.209 263.572V264.698H561L561.268 263.954L560.209 263.572ZM553.909 263.543L553.332 241.1L551.079 241.158L551.657 263.601L553.909 263.543ZM552.205 242.256H560.291V240.003H552.205V242.256ZM559.268 241.601C561.498 246.431 564.682 250.103 568.835 252.557C572.981 255.007 578.017 256.2 583.889 256.2V253.947C578.319 253.947 573.702 252.816 569.982 250.617C566.269 248.424 563.376 245.123 561.314 240.657L559.268 241.601ZM583.889 256.2C588.796 256.2 592.951 255.355 596.295 253.595L595.245 251.601C592.318 253.142 588.553 253.947 583.889 253.947V256.2ZM596.295 253.595C599.531 251.892 601.6 249.731 601.6 246.987H599.347C599.347 248.424 598.28 250.004 595.245 251.601L596.295 253.595ZM601.6 246.987C601.6 244.73 600.497 242.976 598.481 241.805L597.35 243.754C598.744 244.563 599.347 245.614 599.347 246.987H601.6ZM598.444 241.785C597.451 241.257 595.93 240.722 593.949 240.168C591.948 239.609 589.411 239.011 586.345 238.376L585.888 240.582C588.927 241.212 591.41 241.797 593.342 242.338C595.294 242.884 596.619 243.367 597.387 243.774L598.444 241.785ZM586.341 238.375C576.893 236.453 569.98 234.652 565.558 232.98L564.761 235.087C569.359 236.826 576.418 238.655 585.892 240.583L586.341 238.375ZM565.569 232.984C561.235 231.293 557.777 228.744 555.161 225.343L553.375 226.717C556.26 230.467 560.063 233.254 564.75 235.083L565.569 232.984ZM555.166 225.35C552.566 221.918 551.269 218.033 551.269 213.654H549.016C549.016 218.516 550.469 222.881 553.37 226.71L555.166 225.35ZM551.269 213.654C551.269 207.141 553.901 201.914 559.237 197.886L557.88 196.088C551.995 200.531 549.016 206.416 549.016 213.654H551.269ZM559.243 197.882C564.601 193.785 571.843 191.678 581.084 191.678V189.425C571.512 189.425 563.738 191.608 557.874 196.092L559.243 197.882ZM581.084 191.678C588.193 191.678 595.456 193.078 602.879 195.895L603.678 193.789C596.029 190.885 588.495 189.425 581.084 189.425V191.678ZM604.058 195.655C605.472 194.3 606.598 192.761 607.428 191.041L605.399 190.062C604.689 191.532 603.725 192.853 602.499 194.029L604.058 195.655ZM606.414 191.678H613.262V189.425H606.414V191.678ZM612.136 190.592L612.879 211.054L615.13 210.973L614.388 190.511L612.136 190.592ZM614.004 209.887H607.404V212.14H614.004V209.887ZM608.41 210.507C603.917 201.58 594.981 197.263 582.074 197.263V199.516C594.469 199.516 602.419 203.616 606.398 211.52L608.41 210.507ZM582.074 197.263C577.833 197.263 574.255 197.969 571.405 199.453L572.445 201.452C574.875 200.186 578.063 199.516 582.074 199.516V197.263ZM571.421 199.445C568.579 200.866 566.838 202.881 566.838 205.568H569.091C569.091 204.074 569.99 202.679 572.429 201.46L571.421 199.445ZM566.838 205.568C566.838 206.859 567.156 208.037 567.829 209.056C568.499 210.07 569.476 210.858 570.689 211.449L571.676 209.423C570.743 208.969 570.111 208.423 569.709 207.814C569.31 207.21 569.091 206.477 569.091 205.568H566.838ZM570.679 211.444C571.839 212.024 573.742 212.639 576.305 213.301C578.893 213.969 582.231 214.702 586.312 215.502L586.746 213.291C582.686 212.496 579.396 211.772 576.868 211.119C574.316 210.46 572.616 209.893 571.686 209.428L570.679 211.444ZM586.307 215.501C594.757 217.202 601.024 218.917 605.156 220.635L606.021 218.554C601.682 216.751 595.243 215.001 586.751 213.292L586.307 215.501ZM605.161 220.637C609.276 222.325 612.452 224.784 614.736 228.002L616.573 226.698C614.016 223.095 610.482 220.384 606.016 218.552L605.161 220.637ZM614.748 228.019C617.07 231.167 618.241 234.834 618.241 239.067H620.494C620.494 234.388 619.189 230.244 616.561 226.682L614.748 228.019ZM618.241 239.067C618.241 245.873 615.257 251.431 609.141 255.807L610.452 257.64C617.098 252.884 620.494 246.672 620.494 239.067H618.241ZM609.141 255.807C602.987 260.21 595.335 262.445 586.117 262.445V264.698C595.71 264.698 603.845 262.367 610.452 257.64L609.141 255.807ZM586.117 262.445C579.073 262.445 571.677 260.94 563.92 257.902L563.098 260C571.073 263.123 578.748 264.698 586.117 264.698V262.445ZM562.839 258.046C561.151 259.296 559.929 261.03 559.149 263.189L561.268 263.954C561.919 262.153 562.897 260.807 564.18 259.856L562.839 258.046ZM560.209 262.445H552.783V264.698H560.209V262.445Z" fill="white" mask="url(#path-1-outside-1_2623_20218)"/>
<path d="M225.105 38.7244C224.096 33.4225 222.833 11.2053 234.699 6.91334C246.565 2.62137 253.382 6.91334 253.382 6.91334C258.984 10.676 262.776 13.9825 262.776 22.5664C262.776 32.5721 261.708 37.2454 262.776 46.5509C263.243 50.6217 263.713 52.879 264.491 56.9021C266.287 66.2 265.528 72.3531 270.55 80.3817C276.406 89.7442 279.891 94.015 293.019 97.5496C306.148 101.084 319.637 105.72 334.929 99.8218C347.073 95.1382 356.148 90.6532 360.429 78.362C360.429 78.362 364.686 64.1205 360.429 56.9021C356.494 50.2315 351.258 46.4899 343.513 46.5509C337.557 46.5978 329.627 52.8626 329.627 52.8626C329.627 52.8626 324.132 58.1239 320.034 60.6892C312.528 65.3871 307.057 67.2028 298.574 68.0107C290.091 68.8186 286.382 67.2641 278.629 68.0107C269.91 68.8504 263.127 73.5651 256.664 72.5552C248.585 71.2928 235.216 64.6007 229.145 52.8626C226.507 47.7622 225.779 40.7441 225.105 38.7244Z" stroke="#C05757" stroke-width="8.63745"/>
<path d="M219.454 41.8642C218.444 36.5624 217.182 14.3451 229.048 10.0532C240.914 5.7612 247.731 10.0532 247.731 10.0532C253.333 13.8159 257.124 17.1223 257.124 25.7062C257.124 35.712 256.057 40.3853 257.124 49.6907C257.592 53.7615 258.062 56.0189 258.839 60.042C260.635 69.3398 259.877 75.493 264.898 83.5215C270.754 92.884 274.24 97.1549 287.368 100.689C300.496 104.224 313.985 108.86 329.278 102.962C341.421 98.278 350.497 93.793 354.777 81.5018C354.777 81.5018 359.035 67.2604 354.777 60.042C350.843 53.3713 345.606 49.6297 337.862 49.6907C331.905 49.7377 323.976 56.0025 323.976 56.0025C323.976 56.0025 318.481 61.2637 314.382 63.829C306.876 68.5269 301.405 70.3427 292.922 71.1506C284.439 71.9585 280.731 70.4039 272.977 71.1506C264.258 71.9903 257.476 76.7049 251.013 75.695C242.934 74.4327 229.564 67.7405 223.494 56.0025C220.856 50.902 220.127 43.884 219.454 41.8642Z" stroke="#F8F2F2" stroke-width="8.63745"/>
<path d="M200.584 48.7365C200.85 44.3471 207.214 37.1825 202.848 37.706C201.392 37.8805 200.102 38.2742 199.453 39.3084C198.804 40.3426 196.132 45.1714 195.634 49.33C195.149 53.3802 196.281 57.3815 196.878 59.7009C198.068 62.9851 201.287 70.5529 204.635 74.5507C207.984 78.5485 211.819 80.623 211.819 80.623C211.819 80.623 229.319 92.3122 226.346 90.1184C223.374 87.9245 216.141 83.4242 212.997 80.4817C208.776 76.5298 206.25 72.4775 203.703 66.7725C200.789 60.2455 200.151 55.8714 200.584 48.7365Z" fill="#F8F2F2" stroke="#F8F2F2" stroke-opacity="0.8" stroke-width="0.474781"/>
<path d="M208.737 102.15C211.229 103.175 216.881 101.579 215.426 103.847C214.941 104.603 214.379 105.21 213.635 105.291C212.892 105.373 209.514 105.557 207.088 104.721C204.724 103.907 202.82 102.214 201.7 101.265C200.206 99.7314 196.892 95.9348 195.581 93.0202C194.271 90.1055 194.151 87.4361 194.151 87.4361C194.151 87.4361 192.378 74.6616 192.794 76.8872C193.21 79.1128 193.76 84.3043 194.544 86.8239C195.596 90.2077 197.156 92.6834 199.622 95.6121C202.444 98.9627 204.686 100.483 208.737 102.15Z" fill="#F8F2F2" fill-opacity="0.8" stroke="#F8F2F2" stroke-opacity="0.8" stroke-width="0.290957"/>
<path d="M343.277 62.1804C343.277 66.4094 348.382 67.2853 340.724 72.3901C336.495 72.3901 333.067 68.9618 333.067 64.7328C333.067 60.5038 336.495 57.0755 340.724 57.0755C344.953 57.0755 343.277 57.9514 343.277 62.1804Z" fill="#F8F2F2"/>
<path d="M325.566 67.0319C325.566 67.8777 325.566 68.3079 324.034 69.3289C323.189 69.3289 322.503 68.6433 322.503 67.7975C322.503 66.9517 323.189 66.266 324.034 66.266C324.88 66.266 325.566 66.1861 325.566 67.0319Z" fill="#F8F2F2"/>
<path d="M325.566 70.863C325.566 72.5546 325.566 73.4152 328.628 75.4571C330.32 75.4571 331.691 74.0858 331.691 72.3942C331.691 70.7026 330.32 69.3313 328.628 69.3313C326.937 69.3313 325.566 69.1714 325.566 70.863Z" fill="#F8F2F2"/>
<path d="M325.563 80.0541C325.563 81.744 325.563 82.6037 328.623 84.6437C330.313 84.6437 332.188 81.744 332.188 80.0541C332.188 78.3641 330.313 78.5197 328.623 78.5197C326.933 78.5197 325.563 78.3641 325.563 80.0541Z" fill="#F8F2F2"/>
<path d="M347.006 66.2643C347.006 68.8017 344.944 69.3274 349.538 72.3903C352.075 72.3903 354.132 70.3333 354.132 67.7959C354.132 65.2585 352.075 63.2015 349.538 63.2015C347.001 63.2015 347.006 63.7269 347.006 66.2643Z" fill="#C05757"/>
</svg>
