<svg width="701" height="420" viewBox="0 0 701 420" fill="none" xmlns="http://www.w3.org/2000/svg">
<path d="M157.724 146.244C153.851 125.909 149.009 40.6972 194.52 24.2358C240.031 7.77446 266.175 24.2358 266.175 24.2358C287.662 38.6673 302.205 51.3487 302.205 84.2715C302.205 122.647 298.109 140.571 302.205 176.262C303.997 191.875 305.8 200.532 308.781 215.963C315.671 251.623 312.761 275.223 332.021 306.016C354.481 341.925 367.849 358.305 418.201 371.862C468.554 385.418 520.288 403.199 578.942 380.576C625.516 362.613 660.324 345.411 676.742 298.269C676.742 298.269 693.072 243.648 676.742 215.963C661.651 190.378 641.567 176.028 611.865 176.262C589.019 176.442 558.607 200.469 558.607 200.469C558.607 200.469 537.531 220.648 521.811 230.487C493.023 248.506 472.04 255.47 439.504 258.569C406.969 261.667 392.744 255.705 363.007 258.569C329.566 261.789 303.552 279.871 278.764 275.998C247.777 271.157 196.502 245.489 173.217 200.469C163.099 180.907 160.306 153.99 157.724 146.244Z" stroke="#C05757" stroke-width="33.128"/>
<path d="M136.048 158.286C132.175 137.951 127.333 52.7395 172.844 36.2781C218.355 19.8167 244.5 36.2781 244.5 36.2781C265.986 50.7095 280.529 63.3909 280.529 96.3137C280.529 134.69 276.433 152.614 280.529 188.304C282.321 203.917 284.125 212.575 287.106 228.005C293.995 263.666 291.085 287.265 310.345 318.058C332.806 353.967 346.173 370.347 396.525 383.904C446.878 397.46 498.612 415.241 557.266 392.619C603.841 374.655 638.648 357.454 655.066 310.312C655.066 310.312 671.396 255.69 655.066 228.005C639.975 202.42 619.891 188.07 590.189 188.304C567.343 188.484 536.931 212.512 536.931 212.512C536.931 212.512 515.855 232.691 500.135 242.53C471.347 260.548 450.364 267.512 417.828 270.611C385.293 273.709 371.068 267.747 341.331 270.611C307.89 273.831 281.877 291.914 257.088 288.04C226.102 283.199 174.826 257.532 151.541 212.512C141.424 192.949 138.63 166.033 136.048 158.286Z" stroke="#F8F2F2" stroke-width="33.128"/>
<path d="M63.6806 184.645C64.702 167.81 89.1091 140.33 72.3631 142.338C66.781 143.008 61.8341 144.518 59.3449 148.484C56.8557 152.451 46.6056 170.971 44.6964 186.921C42.8369 202.455 47.1764 217.802 49.4656 226.697C54.0326 239.293 66.3772 268.319 79.2198 283.652C92.0623 298.985 106.771 306.942 106.771 306.942C106.771 306.942 173.892 351.775 162.49 343.36C151.089 334.946 123.347 317.686 111.291 306.4C95.1011 291.243 85.412 275.701 75.6428 253.82C64.466 228.786 62.0203 212.01 63.6806 184.645Z" fill="#F8F2F2" stroke="#F8F2F2" stroke-opacity="0.8" stroke-width="1.82097"/>
<path d="M94.945 389.505C104.503 393.438 126.179 387.316 120.598 396.016C118.738 398.916 116.584 401.241 113.731 401.554C110.879 401.868 97.926 402.575 88.6189 399.368C79.5544 396.244 72.2489 389.751 67.9539 386.113C62.2263 380.229 49.5144 365.668 44.4876 354.489C39.4608 343.31 39.0011 333.072 39.0011 333.072C39.0011 333.072 32.2013 284.077 33.7969 292.613C35.3925 301.149 37.5025 321.06 40.5073 330.724C44.5428 343.702 50.5272 353.198 59.9863 364.43C70.8084 377.281 79.4082 383.111 94.945 389.505Z" fill="#F8F2F2" fill-opacity="0.8" stroke="#F8F2F2" stroke-opacity="0.8" stroke-width="1.11593"/>
<path d="M610.957 236.207C610.957 252.427 630.536 255.786 601.168 275.365C584.948 275.365 571.799 262.216 571.799 245.997C571.799 229.777 584.948 216.628 601.168 216.628C617.388 216.628 610.957 219.987 610.957 236.207Z" fill="#F8F2F2"/>
<path d="M543.03 254.815C543.03 258.059 543.03 259.709 537.156 263.625C533.912 263.625 531.282 260.996 531.282 257.752C531.282 254.508 533.912 251.878 537.156 251.878C540.4 251.878 543.03 251.571 543.03 254.815Z" fill="#F8F2F2"/>
<path d="M543.029 269.508C543.029 275.996 543.029 279.297 554.777 287.128C561.265 287.128 566.524 281.869 566.524 275.381C566.524 268.893 561.265 263.633 554.777 263.633C548.289 263.633 543.029 263.02 543.029 269.508Z" fill="#F8F2F2"/>
<path d="M543.03 304.759C543.03 311.241 543.03 314.538 554.766 322.362C561.247 322.362 568.438 311.241 568.438 304.759C568.438 298.278 561.247 298.874 554.765 298.874C548.284 298.874 543.03 298.278 543.03 304.759Z" fill="#F8F2F2"/>
<path d="M625.262 251.87C625.262 261.602 617.351 263.618 634.972 275.366C644.704 275.366 652.593 267.476 652.593 257.744C652.593 248.012 644.704 240.123 634.972 240.123C625.24 240.123 625.262 242.138 625.262 251.87Z" fill="#C05757"/>
</svg>
