<svg width="12" height="12" viewBox="0 0 12 12" fill="none" xmlns="http://www.w3.org/2000/svg">
<path d="M7.9503 1.34525H4.04962C2.35529 1.34525 1.34521 2.35532 1.34521 4.04965V7.94567C1.34521 9.64466 2.35529 10.6547 4.04962 10.6547H7.94564C9.63997 10.6547 10.65 9.64466 10.65 7.95033V4.04965C10.6547 2.35532 9.64462 1.34525 7.9503 1.34525ZM8.49025 4.62684L7.40104 8.13652C7.14037 8.96972 5.97203 8.98368 5.6974 8.15514L5.37157 7.1916C5.28313 6.92628 5.07366 6.71217 4.80834 6.62838L3.84016 6.30255C3.02092 6.02792 3.03023 4.85027 3.86343 4.59891L7.37311 3.50505C8.06201 3.29558 8.70902 3.94259 8.49025 4.62684Z" fill="white"/>
</svg>
