<svg width="24" height="25" viewBox="0 0 24 25" fill="none" xmlns="http://www.w3.org/2000/svg">
<g clip-path="url(#clip0_2572_17521)">
<g filter="url(#filter0_d_2572_17521)">
<path d="M3.55597 11.5024C1.02662 14.0318 0.582491 18.5558 0.702748 21.0382C0.723012 21.4565 1.22445 21.6163 1.52551 21.3252C5.42659 17.5529 9.25327 17.3643 11.0318 17.8308C11.2352 17.8841 11.3658 18.0742 11.3658 18.2844V22.0528C11.3658 22.4802 11.8674 22.7106 12.1916 22.432L22.8845 13.2466C23.1113 13.0518 23.1175 12.7027 22.8978 12.4999L12.205 2.62959C11.8847 2.33394 11.3658 2.56111 11.3658 2.99699V7.72797C11.3658 8.02598 11.1073 8.25873 10.8092 8.2598C9.19025 8.26565 6.15735 8.90107 3.55597 11.5024Z" fill="white"/>
</g>
</g>
<defs>
<filter id="filter0_d_2572_17521" x="-5.31494" y="-0.503998" width="34.3737" height="32.0577" filterUnits="userSpaceOnUse" color-interpolation-filters="sRGB">
<feFlood flood-opacity="0" result="BackgroundImageFix"/>
<feColorMatrix in="SourceAlpha" type="matrix" values="0 0 0 0 0 0 0 0 0 0 0 0 0 0 0 0 0 0 127 0" result="hardAlpha"/>
<feOffset dy="3"/>
<feGaussianBlur stdDeviation="3"/>
<feComposite in2="hardAlpha" operator="out"/>
<feColorMatrix type="matrix" values="0 0 0 0 0.258824 0 0 0 0 0.290196 0 0 0 0 0.32549 0 0 0 0.12 0"/>
<feBlend mode="normal" in2="BackgroundImageFix" result="effect1_dropShadow_2572_17521"/>
<feBlend mode="normal" in="SourceGraphic" in2="effect1_dropShadow_2572_17521" result="shape"/>
</filter>
<clipPath id="clip0_2572_17521">
<rect y="0.5" width="24" height="24" fill="white"/>
</clipPath>
</defs>
</svg>
