<svg width="9" height="8" viewBox="0 0 9 8" fill="none" xmlns="http://www.w3.org/2000/svg">
<path d="M4.82664 1.17L5.4133 2.34334C5.4933 2.50667 5.70664 2.66334 5.88664 2.69334L6.94997 2.87C7.62997 2.98334 7.78997 3.47667 7.29997 3.96334L6.4733 4.79C6.3333 4.93 6.25664 5.2 6.29997 5.39334L6.53664 6.41667C6.7233 7.22667 6.2933 7.54 5.57664 7.11667L4.57997 6.52667C4.39997 6.42 4.1033 6.42 3.91997 6.52667L2.9233 7.11667C2.20997 7.54 1.77664 7.22334 1.9633 6.41667L2.19997 5.39334C2.2433 5.2 2.16664 4.93 2.02664 4.79L1.19997 3.96334C0.713303 3.47667 0.86997 2.98334 1.54997 2.87L2.6133 2.69334C2.78997 2.66334 3.0033 2.50667 3.0833 2.34334L3.66997 1.17C3.98997 0.533338 4.50997 0.533338 4.82664 1.17Z" fill="white"/>
<path d="M4.82664 1.17L5.4133 2.34334C5.4933 2.50667 5.70664 2.66334 5.88664 2.69334L6.94997 2.87C7.62997 2.98334 7.78997 3.47667 7.29997 3.96334L6.4733 4.79C6.3333 4.93 6.25664 5.2 6.29997 5.39334L6.53664 6.41667C6.7233 7.22667 6.2933 7.54 5.57664 7.11667L4.57997 6.52667C4.39997 6.42 4.1033 6.42 3.91997 6.52667L2.9233 7.11667C2.20997 7.54 1.77664 7.22334 1.9633 6.41667L2.19997 5.39334C2.2433 5.2 2.16664 4.93 2.02664 4.79L1.19997 3.96334C0.713303 3.47667 0.86997 2.98334 1.54997 2.87L2.6133 2.69334C2.78997 2.66334 3.0033 2.50667 3.0833 2.34334L3.66997 1.17C3.98997 0.533338 4.50997 0.533338 4.82664 1.17Z" fill="white"/>
<path d="M4.82664 1.17L5.4133 2.34334C5.4933 2.50667 5.70664 2.66334 5.88664 2.69334L6.94997 2.87C7.62997 2.98334 7.78997 3.47667 7.29997 3.96334L6.4733 4.79C6.3333 4.93 6.25664 5.2 6.29997 5.39334L6.53664 6.41667C6.7233 7.22667 6.2933 7.54 5.57664 7.11667L4.57997 6.52667C4.39997 6.42 4.1033 6.42 3.91997 6.52667L2.9233 7.11667C2.20997 7.54 1.77664 7.22334 1.9633 6.41667L2.19997 5.39334C2.2433 5.2 2.16664 4.93 2.02664 4.79L1.19997 3.96334C0.713303 3.47667 0.86997 2.98334 1.54997 2.87L2.6133 2.69334C2.78997 2.66334 3.0033 2.50667 3.0833 2.34334L3.66997 1.17C3.98997 0.533338 4.50997 0.533338 4.82664 1.17Z" stroke="white" stroke-width="0.666667" stroke-linecap="round" stroke-linejoin="round"/>
<path d="M4.82664 1.17L5.4133 2.34334C5.4933 2.50667 5.70664 2.66334 5.88664 2.69334L6.94997 2.87C7.62997 2.98334 7.78997 3.47667 7.29997 3.96334L6.4733 4.79C6.3333 4.93 6.25664 5.2 6.29997 5.39334L6.53664 6.41667C6.7233 7.22667 6.2933 7.54 5.57664 7.11667L4.57997 6.52667C4.39997 6.42 4.1033 6.42 3.91997 6.52667L2.9233 7.11667C2.20997 7.54 1.77664 7.22334 1.9633 6.41667L2.19997 5.39334C2.2433 5.2 2.16664 4.93 2.02664 4.79L1.19997 3.96334C0.713303 3.47667 0.86997 2.98334 1.54997 2.87L2.6133 2.69334C2.78997 2.66334 3.0033 2.50667 3.0833 2.34334L3.66997 1.17C3.98997 0.533338 4.50997 0.533338 4.82664 1.17Z" stroke="white" stroke-width="0.666667" stroke-linecap="round" stroke-linejoin="round"/>
</svg>
