<svg width="27" height="27" viewBox="0 0 27 27" fill="none" xmlns="http://www.w3.org/2000/svg">
<path d="M27 13.5C27 16.4827 26.0122 19.3814 24.1909 21.7434C22.3696 24.1055 19.8174 25.7978 16.9327 26.5563C14.0481 27.3147 10.9935 27.0965 8.24599 25.9356C5.49847 24.7748 3.21273 22.7368 1.74574 20.1398C0.27874 17.5428 -0.286911 14.5332 0.137119 11.5808C0.561149 8.6284 1.95099 5.89956 4.08958 3.82044C6.22817 1.74131 8.9951 0.428954 11.9583 0.0883243C14.9214 -0.252305 17.914 0.397969 20.4686 1.93759L13.5 13.5H27Z" fill="#D3C046"/>
<path fill-rule="evenodd" clip-rule="evenodd" d="M10.9066 8.89071L18.3905 13.5682L10.9066 18.2456V8.89071V8.89071ZM10.9066 6.08437C9.3566 6.08437 8.1001 7.34087 8.1001 8.89085V18.2458C8.10145 19.2653 8.65564 20.204 9.54772 20.6976C10.4398 21.1913 11.5294 21.1623 12.394 20.6219L19.878 15.9445C20.6994 15.4318 21.1985 14.5319 21.1985 13.5636C21.1985 12.5954 20.6994 11.6955 19.878 11.1828L12.394 6.50534C11.9484 6.22525 11.4329 6.07613 10.9066 6.07501V6.08437Z" fill="white"/>
<path d="M18.3905 13.5682L18.5694 13.8544L19.0273 13.5682L18.5694 13.282L18.3905 13.5682ZM10.9066 18.2456H10.5691V18.8546L11.0855 18.5318L10.9066 18.2456ZM10.9066 6.08437V6.42187H11.2441V6.08437H10.9066ZM8.1001 18.2458L7.7626 18.2458L7.7626 18.2462L8.1001 18.2458ZM12.394 20.6219L12.2151 20.3357L12.2151 20.3357L12.394 20.6219ZM19.878 15.9445L19.6993 15.6582L19.6991 15.6583L19.878 15.9445ZM19.878 11.1828L19.6991 11.469L19.6993 11.4691L19.878 11.1828ZM12.394 6.50534L12.2144 6.79109L12.2151 6.79154L12.394 6.50534ZM10.9066 6.07501L10.9073 5.73751L10.5691 5.73679V6.07501H10.9066ZM10.7277 9.17691L18.2117 13.8544L18.5694 13.282L11.0855 8.60451L10.7277 9.17691ZM18.2117 13.282L10.7277 17.9594L11.0855 18.5318L18.5694 13.8544L18.2117 13.282ZM11.2441 18.2456V8.89071H10.5691V18.2456H11.2441ZM10.9066 5.74687C9.17021 5.74687 7.7626 7.15448 7.7626 8.89085H8.4376C8.4376 7.52727 9.543 6.42187 10.9066 6.42187V5.74687ZM7.7626 8.89085V18.2458H8.4376V8.89085H7.7626ZM7.7626 18.2462C7.76412 19.3884 8.38495 20.4399 9.38431 20.9929L9.71113 20.4023C8.92633 19.968 8.43879 19.1423 8.4376 18.2453L7.7626 18.2462ZM9.38431 20.9929C10.3837 21.5459 11.6043 21.5135 12.5729 20.9081L12.2151 20.3357C11.4545 20.8111 10.4959 20.8366 9.71113 20.4023L9.38431 20.9929ZM12.5729 20.9081L20.0568 16.2307L19.6991 15.6583L12.2151 20.3357L12.5729 20.9081ZM20.0567 16.2308C20.9769 15.6565 21.536 14.6484 21.536 13.5636H20.861C20.861 14.4155 20.4219 15.2071 19.6993 15.6582L20.0567 16.2308ZM21.536 13.5636C21.536 12.4789 20.9769 11.4708 20.0567 10.8965L19.6993 11.4691C20.4219 11.9201 20.861 12.7118 20.861 13.5636H21.536ZM20.0568 10.8966L12.5729 6.21914L12.2151 6.79154L19.6991 11.469L20.0568 10.8966ZM12.5736 6.21959C12.0744 5.90582 11.4969 5.73877 10.9073 5.73751L10.9059 6.41251C11.3689 6.4135 11.8224 6.54468 12.2144 6.79109L12.5736 6.21959ZM10.5691 6.07501V6.08437H11.2441V6.07501H10.5691Z" fill="white"/>
</svg>
