<svg width="10" height="10" viewBox="0 0 10 10" fill="none" xmlns="http://www.w3.org/2000/svg">
<path d="M1.94818 4.15057H0.278335C0.122403 4.15057 0 4.27297 0 4.4289V8.88178C0 9.03771 0.122403 9.16011 0.278335 9.16011H1.94818C2.10411 9.16011 2.22636 9.03771 2.22636 8.88178V4.4289C2.22652 4.27297 2.10411 4.15057 1.94818 4.15057Z" fill="#F9F9F9"/>
<path d="M9.99985 4.67804C9.99985 4.22452 9.68846 3.76555 9.09377 3.76555H6.39754C6.78271 3.07653 6.89597 2.10741 6.62823 1.39834C6.43155 0.876805 6.05567 0.572481 5.56927 0.54152L5.56141 0.540878C5.24489 0.521467 4.97089 0.758573 4.94458 1.07461C4.87528 1.7779 4.5671 3.02183 4.12546 3.46347C3.7536 3.83534 3.43532 3.99111 2.90768 4.24907C2.83132 4.28645 2.7479 4.32719 2.65967 4.37115C2.66127 4.39024 2.66223 4.40933 2.66223 4.4289V8.83638C2.72592 8.8582 2.78881 8.87985 2.85057 8.90103C3.72135 9.20118 4.4739 9.46027 5.62413 9.46027H7.80397C8.39882 9.46027 8.71004 9.00113 8.71004 8.54778C8.71004 8.41318 8.68277 8.27826 8.62871 8.15474C8.82683 8.11912 9.00025 8.02383 9.12875 7.87801C9.27457 7.71229 9.35494 7.49203 9.35494 7.25781C9.35494 7.1237 9.32767 6.98878 9.27377 6.86558C9.75135 6.78312 10 6.37324 10 5.96801C10 5.73299 9.91626 5.49636 9.75295 5.3231C9.91594 5.14968 9.99985 4.91306 9.99985 4.67804Z" fill="#F9F9F9"/>
</svg>
