<svg width="27" height="27" viewBox="0 0 27 27" fill="none" xmlns="http://www.w3.org/2000/svg">
<path d="M7.16077 1.57861V25.4209C2.90035 23.1505 0 18.6643 0 13.4998C0 8.33515 2.90035 3.84878 7.16077 1.57861Z" fill="#007A5E"/>
<path d="M19.3637 1.33642V25.6635C17.5904 26.5199 15.6014 27 13.5004 27C11.209 27 9.05133 26.4281 7.16113 25.421V1.57878C9.05133 0.571612 11.209 0 13.5004 0C15.6014 0 17.5904 0.480097 19.3637 1.33642Z" fill="#CE1126"/>
<path d="M19.3639 25.6634V1.3363C23.8831 3.51863 27.0006 8.14499 27.0006 13.4999C27.0006 18.8546 23.8831 23.4809 19.3639 25.6634ZM13.2626 9.82495L12.4438 12.345H9.79395L11.9377 13.9025L11.1189 16.4227L13.2626 14.865L15.4063 16.4227L14.5875 13.9025L16.7313 12.345H14.0814L13.2626 9.82495Z" fill="#FCD116"/>
</svg>
