<svg width="27" height="27" viewBox="0 0 27 27" fill="none" xmlns="http://www.w3.org/2000/svg">
<path d="M13.4992 0C17.2221 0 20.593 1.51135 23.0327 3.95409C25.4724 6.39706 26.9818 9.77228 26.9818 13.5C26.9818 17.2277 25.4724 20.6029 23.0326 23.0457C20.593 25.4886 17.2221 27 13.4992 27C9.77627 27 6.40541 25.4886 3.96565 23.0459C1.526 20.6029 0.0166016 17.2277 0.0166016 13.5C0.0166016 9.77228 1.526 6.39706 3.96565 3.95409C6.40541 1.51135 9.77627 0 13.4992 0Z" fill="white"/>
<path d="M19.2761 1.2793C23.8422 3.44676 27 8.10376 27 13.4999C27 18.8958 23.8422 23.553 19.2761 25.7204V1.2793ZM7.54846 25.6352C3.0772 23.4326 0 18.8264 0 13.4999C0 8.17328 3.0772 3.56694 7.54846 1.3645V25.6352Z" fill="#008751"/>
</svg>
