<svg width="27" height="27" viewBox="0 0 27 27" fill="none" xmlns="http://www.w3.org/2000/svg">
<path d="M13.5 0C20.9558 0 27 6.04405 27 13.5C27 20.9558 20.9558 27 13.5 27C6.04399 27 0 20.9558 0 13.5C0 6.04405 6.04399 0 13.5 0Z" fill="#00853F"/>
<path d="M6.6875 1.84346V25.1563C8.68754 26.3278 11.0152 27 13.5002 27C20.956 27 27.0002 20.9558 27.0002 13.5C27.0002 6.04405 20.956 0 13.5002 0C11.0152 0 8.68754 0.672233 6.6875 1.84346Z" fill="#FDEF42"/>
<path d="M20.3145 1.84442V25.1556C24.3139 22.8122 27.0003 18.4702 27.0003 13.5C27.0003 8.52989 24.3139 4.18769 20.3145 1.84442Z" fill="#E31B23"/>
<path d="M13.5008 8.87256L12.4809 12.0112H9.18066L11.8506 13.951L10.8308 17.0896L13.5008 15.1499L16.1707 17.0896L15.1509 13.951L17.8208 12.0112H14.5207L13.5008 8.87256Z" fill="#00853F"/>
</svg>
