<svg width="27" height="27" viewBox="0 0 27 27" fill="none" xmlns="http://www.w3.org/2000/svg">
<path d="M13.501 0C20.9573 0 27.002 6.04445 27.002 13.501C27.002 20.9573 20.9573 27.002 13.501 27.002C6.04445 27.002 0 20.9573 0 13.501C0 6.04445 6.04445 0 13.501 0Z" fill="black"/>
<path d="M3.58643 4.33832H23.4158C24.6255 5.64652 25.5795 7.19466 26.1986 8.90325H0.803711C1.42278 7.19466 2.37656 5.64652 3.58643 4.33832Z" fill="#FCDC04"/>
<path d="M0.803174 8.90332H26.198C26.7143 10.3286 26.9973 11.8654 27.0012 13.4681H0C0.00386801 11.8654 0.286919 10.3286 0.803174 8.90332Z" fill="#D90000"/>
<path d="M0.780273 18.033H26.2215C25.6138 19.739 24.673 21.2868 23.4769 22.598H3.52488C2.32885 21.2868 1.38805 19.739 0.780273 18.033Z" fill="#FCDC04"/>
<path d="M3.52539 22.5981H23.4775C21.0084 25.3041 17.4533 27.0022 13.5014 27.0022C9.54938 27.0022 5.99443 25.3041 3.52539 22.5981Z" fill="#D90000"/>
<path d="M13.5008 19.3387C17.1833 19.3387 20.1686 16.3535 20.1686 12.671C20.1686 8.98844 17.1833 6.00317 13.5008 6.00317C9.81827 6.00317 6.83301 8.98844 6.83301 12.671C6.83301 16.3535 9.81827 19.3387 13.5008 19.3387Z" fill="white"/>
<path d="M12.326 7.56413L11.8936 6.76756C12.0604 6.60075 12.3412 6.47168 12.7887 6.47168C12.7887 6.50206 12.7433 7.34423 12.7433 7.34423L12.326 7.56413Z" fill="#D90000"/>
<path d="M12.2948 7.58119L11.8496 6.7613L11.8683 6.74258C11.9612 6.64963 12.0875 6.5681 12.2554 6.51258C12.4003 6.46479 12.5763 6.4361 12.7887 6.4361H12.8244V6.47172C12.8244 6.50185 12.7788 7.34383 12.7787 7.34626L12.7776 7.36641L12.3116 7.61207L12.2948 7.58119ZM11.9376 6.77446L12.3404 7.51638L12.7087 7.32224C12.7148 7.2097 12.7446 6.65631 12.7517 6.50771C12.5638 6.51083 12.4072 6.53753 12.2777 6.58032C12.1323 6.62836 12.021 6.69661 11.9376 6.77446Z" fill="black"/>
<path d="M12.7432 7.35187L12.8039 6.4719C12.8039 6.4719 13.6992 6.41875 14.1846 7.00284C14.1923 6.99529 13.7067 7.68562 13.7067 7.68562L12.7432 7.35187Z" fill="#FCDC04" stroke="black" stroke-width="0.062388" stroke-miterlimit="22.926"/>
<path d="M13.7217 7.67802L14.1617 6.99524C14.4576 7.30634 14.5789 7.52637 14.6245 7.86018C14.632 7.86772 13.9265 8.0346 13.9265 8.02699C13.9265 8.01938 13.7293 7.68557 13.7217 7.67802Z" fill="#D90000"/>
<path d="M13.6923 7.65882L14.1569 6.93811L14.188 6.97086C14.3381 7.12869 14.4443 7.26381 14.5189 7.40242C14.5926 7.53942 14.6353 7.67909 14.659 7.84628C14.6663 7.85944 14.6633 7.87267 14.6502 7.88583C14.6396 7.89643 14.4657 7.94154 14.2916 7.98296C14.1205 8.02369 13.9456 8.063 13.928 8.063C13.9036 8.063 13.8913 8.04865 13.8913 8.02706C13.8913 8.02388 13.8524 7.96524 13.8096 7.89219C13.7569 7.80236 13.6995 7.70567 13.697 7.70323L13.6768 7.68302L13.6923 7.65882ZM14.1675 7.05289L13.7643 7.67847C13.7877 7.71602 13.8312 7.78857 13.8709 7.85626C13.9005 7.90679 13.9285 7.95607 13.9456 7.98882C13.9947 7.97922 14.1353 7.94684 14.2752 7.91359C14.3789 7.88901 14.4825 7.86414 14.586 7.83898C14.5632 7.68801 14.5232 7.56069 14.4562 7.43611C14.39 7.31316 14.297 7.19201 14.1675 7.05289Z" fill="black"/>
<path d="M12.5459 18.9517C12.5459 18.9517 13.3729 18.0034 14.9812 18.2082C14.7384 17.8137 13.957 17.8592 13.957 17.8592C13.957 17.8592 13.7143 16.0157 13.904 15.9246C14.0937 15.8336 14.8977 15.9322 14.8977 15.9322C15.0039 15.9322 15.186 15.6439 15.0419 15.4619C14.8977 15.2797 14.4728 14.5818 14.6474 14.4452C14.822 14.3087 15.7702 14.5211 15.7702 14.5211L13.0922 11.0919C13.0922 11.0919 12.8191 9.80221 13.3653 9.18013C14.0254 8.63385 13.9571 8.04215 13.9343 8.0497C13.8433 7.45039 12.9329 7.01789 12.3184 7.57178C11.9542 8.01177 12.1969 8.34564 12.1969 8.34564C12.1969 8.34564 11.241 8.60359 11.2031 8.7704C11.1652 8.9374 12.2804 8.74015 12.2804 8.74015L12.1742 9.5064C12.1742 9.5064 10.0044 11.4789 11.6659 13.1859C11.6811 13.1783 11.719 13.1099 11.719 13.1099C11.719 13.1099 12.3032 13.8307 12.9177 13.99C13.4943 14.5818 13.4411 14.4907 13.4411 14.4907C13.4411 14.4907 13.555 15.424 13.4488 15.606C13.3046 15.5605 11.8328 15.5074 11.6128 15.5908C11.4156 15.6515 10.6569 15.6135 10.8466 16.8502C10.9907 16.5163 11.1197 16.2205 11.1197 16.2205C11.1197 16.2205 11.0969 16.6681 11.279 16.8273C11.2488 16.357 11.4536 16.0384 11.4536 16.0384C11.4536 16.0384 11.4915 16.5543 11.6052 16.6301C11.7191 16.7059 11.7191 15.7956 12.3488 15.8715C12.9784 15.9474 13.4336 15.9246 13.4336 15.9246C13.4336 15.9246 13.6461 17.7074 13.5778 17.8743C13.1225 17.7681 12.0377 17.92 11.9694 18.193C12.6066 18.155 12.9026 18.2309 12.9026 18.2309C12.9026 18.2309 12.3867 18.6861 12.5461 18.9516L12.5459 18.9517Z" fill="black"/>
<path d="M12.5572 18.8882C12.7338 18.7122 13.5251 18.0186 14.9034 18.1635C14.6305 17.8557 13.9605 17.8946 13.9585 17.8947L13.9259 17.8963L13.9216 17.8638C13.9209 17.8585 13.6758 15.9948 13.8884 15.8925C14.0817 15.7998 14.849 15.8905 14.899 15.8965C14.9107 15.8959 14.9256 15.8884 14.9416 15.8758C14.9705 15.8529 14.9998 15.8153 15.0222 15.7701C15.0445 15.7249 15.0595 15.6727 15.0595 15.6208C15.0595 15.5727 15.0463 15.5248 15.0139 15.4838L15.0104 15.4795C14.9355 15.3836 14.7927 15.1618 14.6906 14.9471C14.5834 14.7216 14.522 14.5001 14.6242 14.4183L14.6253 14.4173C14.7775 14.2983 15.4341 14.4162 15.6821 14.4662L13.0588 11.1072L13.0571 11.0988C13.0564 11.0951 12.7804 9.79215 13.3384 9.15672L13.3424 9.15266C13.7733 8.79614 13.8869 8.42178 13.9081 8.21424C13.9122 8.17692 13.9131 8.1393 13.9107 8.10182L13.9106 8.0939L13.905 8.09559L13.8989 8.05497C13.8779 7.91648 13.8104 7.78698 13.712 7.67775C13.6094 7.56384 13.4731 7.4722 13.3207 7.41543C13.1683 7.35866 12.9995 7.33676 12.8314 7.36228C12.6625 7.38792 12.4943 7.46171 12.3441 7.5964C11.9998 8.01424 12.2253 8.32441 12.2259 8.32528L12.2546 8.36658L12.206 8.37986C12.2033 8.38061 11.2706 8.6327 11.2376 8.77824C11.2116 8.89271 12.2711 8.70544 12.2742 8.70494L12.3223 8.69646L12.2074 9.52378L12.198 9.53245C12.192 9.53806 10.0801 11.4586 11.6645 13.1324C11.6753 13.1147 11.688 13.0924 11.688 13.0923L11.7137 13.0473L11.7465 13.0875C11.7481 13.0894 12.3235 13.7994 12.9265 13.9555L12.9362 13.958L12.9431 13.9651C13.2803 14.3113 13.384 14.4658 13.4053 14.5003C13.3247 14.4405 13.1739 14.3037 12.8988 14.0216C12.3618 13.8773 11.8537 13.3216 11.7235 13.1707C11.71 13.1907 11.694 13.2114 11.6817 13.2176L11.6584 13.2292L11.6403 13.2106C10.0145 11.5405 11.9888 9.6312 12.1404 9.48909L12.2385 8.78323C12.0192 8.81935 11.1244 8.95528 11.1682 8.76264C11.2055 8.59827 11.9512 8.37781 12.1428 8.32372C12.0885 8.21667 11.9865 7.91667 12.2908 7.54905L12.2944 7.54531C12.4562 7.39946 12.6381 7.31954 12.8208 7.29185C13.001 7.26446 13.182 7.28798 13.3454 7.34886C13.5089 7.40969 13.6549 7.50794 13.765 7.63009C13.8706 7.7473 13.9436 7.88673 13.9681 8.0367C13.9744 8.04992 13.9797 8.07045 13.9818 8.09627C13.9845 8.13797 13.9835 8.17982 13.9789 8.22135C13.9565 8.44037 13.8378 8.8342 13.39 9.20569C12.8825 9.78722 13.1031 10.9664 13.125 11.0765L15.8587 14.5769L15.7625 14.5559C15.7599 14.5554 14.8302 14.3475 14.6691 14.4733L14.6687 14.4735C14.5998 14.5282 14.6605 14.7181 14.755 14.9168C14.8548 15.1268 14.9938 15.3428 15.0663 15.4355L15.0696 15.4398C15.1132 15.4949 15.1308 15.5579 15.1308 15.6208C15.1308 15.6841 15.1128 15.7472 15.0859 15.8016C15.059 15.8561 15.0224 15.9023 14.9856 15.9315C14.9565 15.9546 14.9259 15.9679 14.8975 15.9679L14.8935 15.9676C14.8912 15.9674 14.0989 15.8703 13.919 15.9566C13.7655 16.0305 13.9568 17.5791 13.9878 17.8225C14.1408 17.8189 14.7877 17.826 15.0114 18.1896L15.0504 18.2528L14.9766 18.2434C13.5205 18.0579 12.7166 18.8242 12.5901 18.9562L12.5907 18.9571L12.5711 18.9767L12.5447 18.9522L12.5154 18.9698C12.3742 18.7347 12.6976 18.3804 12.8276 18.2524C12.7095 18.233 12.4308 18.2011 11.9713 18.2285L11.9229 18.2314L11.9346 18.1844C11.9703 18.0418 12.2343 17.9324 12.5534 17.8692C12.8932 17.8018 13.2998 17.7834 13.5514 17.8323C13.5887 17.5789 13.4289 16.1919 13.4019 15.9613C13.2864 15.9648 12.8776 15.971 12.3444 15.9068C11.9421 15.8583 11.8119 16.2511 11.7358 16.4805C11.7135 16.5483 11.6953 16.603 11.6746 16.6342C11.6495 16.672 11.6211 16.6836 11.5854 16.6598C11.4958 16.6 11.4497 16.3233 11.43 16.1608C11.3736 16.2876 11.2949 16.5237 11.3144 16.8251L11.3199 16.9104L11.2555 16.8541C11.1356 16.7492 11.0983 16.5342 11.0873 16.3836L10.83 16.9781L10.8111 16.8555C10.6395 15.736 11.2267 15.6283 11.5116 15.5761C11.548 15.5695 11.5792 15.5637 11.6013 15.557C11.7009 15.5202 12.0259 15.5089 12.3773 15.5118C12.8096 15.5154 13.2855 15.5402 13.4284 15.565C13.5053 15.3587 13.4162 14.5844 13.4064 14.5021L13.4099 14.508L13.4132 14.5062L13.4063 14.501L13.384 14.315L13.472 14.4734C13.4722 14.4738 13.5081 14.5374 13.4826 14.5408C13.505 14.7441 13.5756 15.4589 13.4794 15.6237L13.465 15.6485L13.4379 15.6399C13.3577 15.6145 12.8432 15.5867 12.3767 15.5828C12.0313 15.58 11.7146 15.5902 11.6252 15.624L11.6232 15.6247C11.5972 15.6327 11.5637 15.6388 11.5244 15.6461C11.2728 15.6922 10.7656 15.7853 10.865 16.7173C10.9841 16.442 11.0866 16.207 11.087 16.2062L11.163 16.0325L11.1551 16.2219C11.1551 16.2229 11.1391 16.5374 11.2403 16.7209C11.2434 16.299 11.423 16.0199 11.4235 16.0191L11.4812 15.93L11.4889 16.0359C11.489 16.0373 11.5234 16.5053 11.6161 16.5935C11.6313 16.5699 11.6478 16.5199 11.6683 16.4582C11.7512 16.2084 11.893 15.7806 12.3528 15.836C12.98 15.9116 13.4308 15.889 13.432 15.889L13.4649 15.8877L13.4688 15.9204C13.4694 15.9255 13.6822 17.7124 13.6104 17.8876L13.5989 17.9158L13.5694 17.9089C13.3309 17.8533 12.9142 17.8703 12.567 17.939C12.3157 17.9889 12.1031 18.0637 12.0291 18.1541C12.6292 18.124 12.9102 18.196 12.911 18.1962L12.9764 18.2126L12.926 18.2574C12.9247 18.2585 12.4897 18.6428 12.5572 18.8882ZM13.4053 14.5003L13.4064 14.5021L13.4063 14.501L13.4053 14.5003Z" fill="black"/>
<path d="M12.8016 9.22359C12.8016 9.22359 11.2228 10.9639 11.904 12.2955C11.9402 12.1098 11.9244 11.9931 11.9472 12.0007C11.9092 11.9778 12.143 12.1609 12.1252 12.1253C12.1302 12.029 12.054 11.8227 12.054 11.8227L12.2676 11.8761L12.1429 11.6447L12.4456 11.6803C12.4456 11.6803 12.3387 11.3954 12.3744 11.3954C12.41 11.3954 12.6236 11.4133 12.6236 11.4133C12.1746 10.6074 12.5982 9.93831 12.8016 9.22359H12.8016ZM13.3501 7.73102C13.3501 7.73102 13.4335 8.33039 13.1073 8.50494C13.0542 8.54287 12.8494 8.61118 12.8797 8.73257C12.9177 8.89945 13.0086 8.86913 13.1376 8.83875C13.479 8.77805 13.8735 8.04973 13.3501 7.73114V7.73102Z" fill="#9CA69C"/>
<path d="M12.7158 9.37977C12.3817 9.79305 11.4391 11.0975 11.8861 12.173C11.8906 12.1333 11.8929 12.0993 11.8946 12.0723C11.8969 12.0371 11.8986 12.0123 11.9039 11.9968C11.9066 11.9875 11.9116 11.9789 11.9184 11.972C11.9297 11.9602 11.9453 11.9585 11.9649 11.9704L12.0801 12.0402C12.0613 11.9467 12.0201 11.8352 12.02 11.8348L11.9971 11.7719L12.1975 11.822L12.0786 11.6014L12.3922 11.6382C12.3603 11.5439 12.3065 11.3599 12.3737 11.3599C12.3975 11.3599 12.4944 11.3672 12.5609 11.3725C12.2387 10.742 12.4307 10.1962 12.6246 9.64552C12.6556 9.55724 12.6868 9.46879 12.7158 9.37977ZM11.8719 12.3118C11.2026 11.0035 12.6658 9.32237 12.7688 9.20647L12.7741 9.188H12.8806L12.8329 9.24134C12.7918 9.38501 12.7417 9.5273 12.6917 9.66916C12.4972 10.2216 12.3046 10.7688 12.654 11.396L12.6867 11.4547L12.6199 11.4489C12.6193 11.4488 12.4082 11.4312 12.3737 11.4312C12.3546 11.4312 12.4782 11.6673 12.4785 11.668L12.4984 11.7224L12.2062 11.6881L12.3367 11.9302L12.1082 11.8731C12.1271 11.9318 12.1526 12.0206 12.1589 12.088L12.2412 12.1378L12.1604 12.1105L12.1604 12.119C12.1663 12.1379 12.159 12.1521 12.141 12.1613L12.1407 12.1616C12.1196 12.172 12.0599 12.136 12.0069 12.0965C11.9928 12.0859 11.9794 12.0746 11.9666 12.0625L11.9657 12.0768C11.9622 12.1292 11.9571 12.2066 11.9385 12.3023L11.9188 12.4033L11.8719 12.3118ZM13.3918 7.80373C13.402 7.97609 13.3962 8.38751 13.1262 8.53473C13.1127 8.54415 13.0936 8.55407 13.0713 8.56561C13.0024 8.60135 12.8967 8.65613 12.9137 8.72406L12.9138 8.72475C12.9419 8.8487 13.0119 8.83198 13.111 8.80834L13.131 8.80372C13.2472 8.78307 13.3716 8.67578 13.4583 8.53342C13.5002 8.46502 13.5313 8.39052 13.5505 8.31258C13.5689 8.23585 13.5737 8.15681 13.5602 8.08096C13.542 7.97877 13.4899 7.88196 13.3918 7.80373ZM13.09 8.47359C13.3942 8.31084 13.3145 7.7376 13.3143 7.73598L13.3039 7.66168L13.368 7.70073C13.5257 7.79668 13.6054 7.92806 13.6304 8.06873C13.6455 8.15419 13.6402 8.24303 13.6196 8.32905C13.5987 8.41423 13.5648 8.49567 13.519 8.57047C13.4228 8.72849 13.2809 8.84851 13.1452 8.87347L13.1274 8.87771C12.9875 8.91108 12.8888 8.9346 12.8446 8.74103C12.8141 8.61876 12.95 8.54833 13.0387 8.50235C13.0592 8.49175 13.0768 8.48264 13.0861 8.47596L13.09 8.47359Z" fill="#9CA69C"/>
<path d="M12.6449 8.37792C12.7158 8.37792 12.7732 8.32047 12.7732 8.2496C12.7732 8.17873 12.7158 8.12128 12.6449 8.12128C12.5741 8.12128 12.5166 8.17873 12.5166 8.2496C12.5166 8.32047 12.5741 8.37792 12.6449 8.37792Z" fill="white"/>
<path d="M12.257 8.74774C12.1735 8.81605 11.7335 9.27126 12.1659 9.43813C12.6135 9.31673 12.4921 9.23327 12.5908 9.1347C12.5933 8.9299 12.3682 8.87675 12.257 8.74774Z" fill="#D90000"/>
<path d="M12.2553 8.7973C12.1973 8.8522 12.0866 8.9746 12.0377 9.1013C12.022 9.14184 12.013 9.18252 12.0147 9.22076C12.0162 9.25669 12.0277 9.29113 12.0528 9.32182C12.0772 9.35164 12.1146 9.37852 12.1683 9.40061C12.463 9.31939 12.4864 9.26056 12.5097 9.20167C12.52 9.17553 12.5304 9.14933 12.5553 9.12088C12.55 9.01178 12.4617 8.95039 12.3735 8.88907C12.3322 8.86037 12.2908 8.83162 12.2553 8.7973ZM11.9714 9.07572C12.0341 8.91315 12.188 8.75838 12.2348 8.7202L12.2616 8.6983L12.2842 8.7245C12.3181 8.7638 12.3662 8.79724 12.4142 8.83056C12.5213 8.90504 12.6286 8.97959 12.6266 9.13511L12.6265 9.14964L12.6162 9.15994C12.5941 9.18189 12.585 9.20498 12.576 9.22787C12.5458 9.30416 12.5156 9.38027 12.1756 9.47254L12.1645 9.47553L12.1535 9.47129C12.0815 9.44353 12.031 9.40778 11.9976 9.36692C11.9643 9.3265 11.9453 9.27618 11.9436 9.22382C11.9415 9.17509 11.9525 9.12481 11.9714 9.07572Z" fill="black"/>
<path d="M13.2139 13.0499C13.1912 13.1486 13.0926 13.5127 13.2291 13.7934C13.6085 13.6341 13.783 13.6796 13.9119 13.763C13.6009 13.5127 13.4796 13.4065 13.2139 13.0499Z" fill="#9CA69C"/>
<path d="M13.1745 13.0601L13.1964 12.9674L13.242 13.0287C13.3736 13.2055 13.4694 13.3201 13.5705 13.4211C13.6716 13.5222 13.7791 13.6108 13.9336 13.7353L14.4689 14.1663L13.8919 13.7928C13.8324 13.7542 13.7622 13.7244 13.6632 13.7227C13.5609 13.7209 13.4271 13.7487 13.2423 13.8263L13.2113 13.8393L13.1964 13.8088C13.0619 13.5322 13.1452 13.1828 13.1745 13.0601ZM13.2308 13.1321C13.2002 13.2709 13.1572 13.5316 13.2468 13.7473C13.4251 13.6757 13.5587 13.6497 13.6644 13.6516C13.6853 13.652 13.7052 13.6534 13.724 13.6558C13.6479 13.592 13.5832 13.5343 13.5204 13.4715C13.4288 13.3799 13.3419 13.2782 13.2308 13.1321Z" fill="#9CA69C"/>
<path d="M13.8662 14.7722L13.889 15.6219C13.889 15.6219 14.1849 15.675 14.3214 15.6219C14.458 15.5687 14.3138 15.0301 13.8663 14.7722H13.8662Z" fill="white"/>
<path d="M13.9036 14.8371L13.9239 15.5914C13.999 15.6028 14.2055 15.6287 14.3088 15.5886C14.3149 15.5859 14.3198 15.5812 14.3229 15.5752C14.3342 15.5555 14.338 15.5223 14.3341 15.4798C14.3298 15.4334 14.3159 15.3778 14.2925 15.3177C14.2304 15.1578 14.1015 14.9692 13.9036 14.8371ZM13.8537 15.6226L13.8291 14.7097L13.884 14.7413C14.1292 14.8827 14.2864 15.1057 14.3589 15.2921C14.3847 15.3584 14.4 15.4206 14.4048 15.4734C14.4101 15.5303 14.4032 15.578 14.3844 15.6106C14.3734 15.6308 14.3557 15.6464 14.3343 15.6549C14.1886 15.7116 13.8835 15.6569 13.8826 15.6568L13.8544 15.6514L13.8537 15.6226Z" fill="white"/>
<path d="M16.0133 14.8781C16.0133 14.8781 15.4671 13.5581 14.0711 13.2243C12.6751 12.8904 12.8572 11.4034 12.971 11.3124C13.0318 11.1834 13.0772 10.9862 13.4794 11.1759C13.8815 11.3656 15.7326 12.2986 15.9981 12.3442C16.2636 12.3897 16.036 14.9085 16.0133 14.8781Z" fill="#9CA69C"/>
<path d="M15.9801 14.892C15.9785 14.8883 15.4406 13.5885 14.0623 13.2588C13.654 13.1611 13.3774 12.9664 13.1933 12.7359C13.0078 12.5038 12.9167 12.2361 12.8796 11.9951C12.8425 11.7547 12.8594 11.5396 12.8896 11.4134C12.9034 11.3552 12.9219 11.3129 12.9408 11.2919L12.9523 11.2662C13.0148 11.1252 13.0909 10.9537 13.494 11.1438C13.5816 11.1851 13.7522 11.2688 13.9628 11.3721C14.6601 11.714 15.8036 12.2748 16.0036 12.309C16.209 12.3443 16.1677 13.5255 16.1112 14.2779C16.1006 14.422 16.0879 14.566 16.0732 14.7098C16.0602 14.8329 16.0409 14.9085 16.0213 14.913L16.0192 14.9135C16.0126 14.9148 16.0059 14.9141 15.9997 14.9116C15.9935 14.9091 15.9882 14.9049 15.9844 14.8994L15.9817 14.8958L15.9801 14.892ZM14.0787 13.1896C15.2651 13.4735 15.8442 14.4575 16.0008 14.7688C15.9995 14.7467 16 14.7246 16.0024 14.7026C16.0136 14.5966 16.0271 14.4467 16.0402 14.2725C16.0948 13.5454 16.145 12.4056 15.9916 12.3792C15.7822 12.3434 14.6325 11.7795 13.9316 11.4358C13.7265 11.3353 13.5603 11.2537 13.4636 11.2081C13.1265 11.0491 13.0666 11.184 13.0175 11.2949L12.9993 11.3348L12.9927 11.3401C12.983 11.3478 12.9707 11.3794 12.9587 11.4299C12.9302 11.549 12.9145 11.7537 12.95 11.9846C12.9855 12.2152 13.0723 12.4709 13.2487 12.6916C13.4237 12.9107 13.6878 13.0961 14.0787 13.1896Z" fill="black"/>
<path d="M14.6858 13.2167C14.6629 13.2318 16.5521 14.3318 15.983 15.2802C16.5217 14.9237 16.3472 14.3016 16.3472 14.3016C16.3472 14.3016 16.7872 15.4472 15.7175 16.0086C15.8313 16.1072 15.9072 16.0844 15.9072 16.0844L15.7251 16.2665C15.7251 16.2665 15.6416 16.4031 16.3624 16.054C16.1651 16.2134 16.1499 16.3271 16.1499 16.3271C16.1499 16.3271 16.203 16.4789 16.6734 16.0692C16.294 16.4789 16.2106 16.6913 16.2106 16.6837C17.2348 16.5926 19.4653 13.2622 15.5051 12.2759C15.7176 12.496 15.6872 12.4656 15.6872 12.4656L14.6858 13.2167Z" fill="#D90000"/>
<path d="M14.6557 13.2377C14.6421 13.2174 14.6453 13.2004 14.6654 13.187L15.6337 12.4608L15.3928 12.2114L15.513 12.2413C16.6718 12.53 17.3069 13.0195 17.5992 13.5715C17.7839 13.9203 17.8315 14.2935 17.7878 14.6564C17.7442 15.0177 17.6098 15.3691 17.4299 15.6764C17.0907 16.2558 16.5867 16.6793 16.2228 16.7183C16.2187 16.7193 16.2144 16.7198 16.2101 16.7197H16.1867L16.158 16.6528L16.1879 16.6502C16.2101 16.6076 16.2749 16.4894 16.4255 16.3011C16.1599 16.4632 16.1163 16.34 16.1161 16.3396L16.1128 16.3306L16.1143 16.3213C16.1144 16.3211 16.1222 16.2626 16.1927 16.1722C15.5745 16.4485 15.6932 16.2495 15.6935 16.2489L15.6957 16.245L15.8277 16.1132C15.7912 16.1025 15.7453 16.0802 15.6937 16.0354L15.6543 16.0013L15.7005 15.977C16.3456 15.6385 16.4271 15.0827 16.3955 14.7078C16.3627 14.9064 16.2624 15.1377 16.0021 15.31L15.8712 15.3966L15.9519 15.262C16.4287 14.4673 15.092 13.5448 14.7458 13.3057C14.6945 13.2705 14.6631 13.2487 14.6557 13.2377ZM14.7431 13.2177L14.7861 13.2473C15.1243 13.4807 16.3766 14.3453 16.0796 15.1589C16.4527 14.8119 16.3127 14.3124 16.3123 14.3109L16.1191 13.5916L16.3799 14.2893C16.3811 14.2926 16.8177 15.4291 15.7818 16.0137C15.8556 16.0629 15.8979 16.05 15.898 16.05L16.0227 16.0188L15.7558 16.2855C15.7618 16.2877 15.8206 16.2766 16.3464 16.022L16.6255 15.8867L16.3841 16.0817C16.2355 16.2018 16.197 16.2899 16.1875 16.3209C16.206 16.3362 16.2907 16.3548 16.6494 16.0425L17.1489 15.6075L16.6988 16.0934C16.4469 16.3654 16.3273 16.5488 16.2758 16.6377C16.6133 16.5636 17.0589 16.1694 17.3686 15.6404C17.5438 15.3413 17.6746 14.9993 17.717 14.648C17.7592 14.2984 17.7135 13.9394 17.5362 13.6046C17.263 13.0888 16.6768 12.6281 15.6178 12.3421C17.1556 13.9356 17.0506 13.8568 16.6256 13.444C16.7924 13.6382 16.6689 13.5299 15.7044 12.5338L15.6831 12.5125L14.7431 13.2177Z" fill="black"/>
<path d="M14.7688 12.8905C15.0267 13.0725 15.1177 13.1332 15.1481 13.2243C14.9129 13.1712 14.7005 13.1863 14.7005 13.1863C14.7005 13.1863 14.1922 12.7008 14.1011 12.6629C14.0328 12.6629 13.6383 12.4125 13.6383 12.4125C13.4411 12.3139 13.2591 11.6311 13.9874 11.8283C14.7384 12.1849 14.8446 12.2152 14.8446 12.2152C15.1431 12.3088 15.4414 12.4024 15.7399 12.4959L16.2557 13.0726C16.2557 13.0726 15.3378 12.6173 15.224 12.6098C15.4743 12.8146 15.6185 13.0952 15.6185 13.0952C15.3277 13.0118 15.0748 12.9359 14.7688 12.8905Z" fill="white"/>
<path d="M14.7849 12.9451L14.6257 12.8327L14.7737 12.8547C15.0522 12.8962 15.286 12.9623 15.5433 13.0362C15.4841 12.9407 15.3665 12.7721 15.2012 12.637L15.1151 12.5666L15.226 12.5739C15.3154 12.5798 15.8366 12.8283 16.1075 12.9601L15.7197 12.5266L14.8332 12.2485C14.8329 12.2484 14.7246 12.2173 13.975 11.8614C13.7759 11.808 13.6517 11.8227 13.5804 11.8727C13.5441 11.8981 13.5214 11.9336 13.5093 11.9737C13.4967 12.016 13.4955 12.064 13.5027 12.1119C13.5203 12.2307 13.5864 12.3465 13.654 12.3803L13.6574 12.3821C13.6584 12.3828 14.0422 12.6269 14.1009 12.6269H14.1079L14.1145 12.6296C14.203 12.6664 14.638 13.0777 14.7136 13.1495C14.7614 13.1475 14.908 13.1445 15.0783 13.1738C15.0329 13.1201 14.9458 13.0586 14.7849 12.9451ZM14.9169 12.9513C15.0859 13.0718 15.1536 13.1286 15.1816 13.2125L15.2017 13.2723L15.1401 13.2585C14.9103 13.2068 14.7039 13.2214 14.7033 13.2214L14.6873 13.2228L14.6756 13.2115C14.6742 13.2102 14.1863 12.7439 14.091 12.6971C13.996 12.6802 13.6362 12.453 13.6196 12.4424C13.5344 12.3978 13.4527 12.2605 13.4322 12.1222C13.4236 12.0646 13.4253 12.0062 13.4411 11.9535C13.4575 11.8986 13.4889 11.85 13.5397 11.8145C13.6275 11.753 13.7724 11.7329 13.9963 11.7935L14.0023 11.7957C14.7224 12.1375 14.846 12.1782 14.8549 12.1809L15.7595 12.4644C15.9736 12.7047 16.1886 12.9442 16.4033 13.1841L16.2398 13.1041C16.2378 13.1031 15.6574 12.8153 15.3695 12.6959C15.5488 12.8819 15.6492 13.0775 15.6496 13.0782L15.6891 13.1523L15.5512 13.1127C15.3345 13.0503 15.1361 12.9931 14.9169 12.9513ZM11.1953 8.81605C11.1953 8.81605 12.0753 8.60364 12.1816 8.63402L11.1953 8.81605Z" fill="black"/>
<path d="M11.1865 8.78152C11.1891 8.78089 12.0763 8.56698 12.1909 8.5998L12.1714 8.66829C12.0737 8.64035 11.2057 8.85001 11.2032 8.85064L11.1865 8.78152Z" fill="white"/>
</svg>
